<svg xmlns="http://www.w3.org/2000/svg" xmlns:xlink="http://www.w3.org/1999/xlink" width="500" zoomAndPan="magnify" viewBox="0 0 375 374.999991" height="500" preserveAspectRatio="xMidYMid meet" version="1.0"><defs><clipPath id="80ccc4c27c"><path d="M 58.480469 30.714844 L 316.480469 30.714844 L 316.480469 288.714844 L 58.480469 288.714844 Z M 58.480469 30.714844 " clip-rule="nonzero"/></clipPath><clipPath id="319253e54e"><path d="M 12.4375 51.972656 L 181.8125 51.972656 L 181.8125 344.246094 L 12.4375 344.246094 Z M 12.4375 51.972656 " clip-rule="nonzero"/></clipPath><clipPath id="b3ffd6eb63"><path d="M 193.273438 51.972656 L 362.566406 51.972656 L 362.566406 344.246094 L 193.273438 344.246094 Z M 193.273438 51.972656 " clip-rule="nonzero"/></clipPath></defs><path fill="#0a400c" d="M 211.734375 73.3125 L 203.730469 71.378906 C 196.976562 69.746094 191.707031 64.472656 190.074219 57.71875 L 188.140625 49.714844 L 186.203125 57.71875 C 184.574219 64.472656 179.300781 69.746094 172.546875 71.378906 L 164.542969 73.3125 L 172.546875 75.246094 C 179.300781 76.878906 184.574219 82.152344 186.203125 88.90625 L 188.140625 96.910156 L 190.074219 88.90625 C 191.707031 82.152344 196.976562 76.878906 203.730469 75.246094 L 211.734375 73.3125 " fill-opacity="1" fill-rule="nonzero"/><path fill="#0a400c" d="M 170.179688 108.289062 C 173.085938 94.886719 170.300781 93.742188 169.105469 91.851562 C 168.746094 91.285156 167.953125 91.195312 167.476562 91.671875 C 158.609375 100.542969 160.355469 117.332031 160.355469 117.332031 C 157.960938 111.304688 156.4375 101.5 161.03125 89.363281 C 166.71875 74.34375 159.285156 73.472656 159.285156 73.472656 C 142.726562 94.21875 150.164062 115.933594 150.164062 115.933594 C 144.164062 100.695312 149.777344 91.316406 151.085938 79.257812 C 152.398438 67.195312 144.191406 66.941406 144.191406 66.941406 C 131.359375 104.199219 137.679688 116.539062 138.589844 118.035156 C 133.46875 110.417969 134.875 95 137.296875 85.03125 C 140 73.894531 134.339844 67.863281 131.757812 68.199219 C 126.707031 68.847656 122.339844 105.980469 123.289062 113.921875 C 125.003906 128.242188 133.988281 142.0625 133.988281 142.0625 C 133.988281 142.0625 126.746094 138.542969 118.453125 127.46875 C 110.164062 116.390625 101.121094 120.203125 101.367188 123.21875 C 101.613281 126.234375 113.179688 138.042969 115.847656 146.082031 C 118.515625 154.121094 122.929688 170.957031 138.691406 181.003906 C 161.164062 195.324219 162.421875 223.210938 162.421875 223.210938 C 162.421875 223.210938 171.714844 199.59375 176.492188 186.027344 C 181.261719 172.460938 177.246094 154.875 172.714844 141.058594 C 168.1875 127.238281 167.734375 119.589844 170.179688 108.289062 " fill-opacity="1" fill-rule="nonzero"/><path fill="#0a400c" d="M 258.609375 127.46875 C 250.320312 138.542969 243.074219 142.0625 243.074219 142.0625 C 243.074219 142.0625 252.0625 128.242188 253.773438 113.921875 C 254.722656 105.980469 250.355469 68.847656 245.304688 68.199219 C 242.726562 67.863281 237.0625 73.894531 239.769531 85.03125 C 242.1875 95 243.597656 110.417969 238.476562 118.035156 C 239.382812 116.539062 245.703125 104.199219 232.871094 66.941406 C 232.871094 66.941406 224.667969 67.195312 225.976562 79.257812 C 227.289062 91.316406 232.902344 100.695312 226.898438 115.933594 C 226.898438 115.933594 234.339844 94.21875 217.777344 73.472656 C 217.777344 73.472656 210.34375 74.34375 216.03125 89.363281 C 220.628906 101.5 219.101562 111.304688 216.710938 117.332031 C 216.710938 117.332031 218.453125 100.542969 209.585938 91.671875 C 209.113281 91.195312 208.316406 91.285156 207.957031 91.851562 C 206.761719 93.742188 203.980469 94.886719 206.882812 108.289062 C 209.332031 119.589844 208.875 127.238281 204.347656 141.058594 C 199.820312 154.875 195.800781 172.460938 200.574219 186.027344 C 205.347656 199.59375 214.644531 223.210938 214.644531 223.210938 C 214.644531 223.210938 215.898438 195.324219 238.371094 181.003906 C 254.136719 170.957031 258.550781 154.121094 261.21875 146.082031 C 263.886719 138.042969 275.453125 126.234375 275.699219 123.21875 C 275.945312 120.203125 266.902344 116.390625 258.609375 127.46875 " fill-opacity="1" fill-rule="nonzero"/><g clip-path="url(#80ccc4c27c)"><path fill="#0a400c" d="M 260.957031 244.480469 C 240.726562 217.644531 236.984375 189.582031 236.984375 189.582031 C 236.984375 189.582031 227.277344 196.203125 219.777344 218.703125 C 215.90625 230.3125 220.046875 249.558594 224.960938 265.46875 C 213.242188 269.617188 200.632812 271.886719 187.496094 271.886719 C 175.054688 271.886719 163.085938 269.855469 151.902344 266.117188 C 156.902344 250.082031 161.210938 230.472656 157.289062 218.703125 C 149.789062 196.203125 140.082031 189.582031 140.082031 189.582031 C 140.082031 189.582031 136.238281 218.394531 115.292969 245.546875 C 90.867188 224.972656 75.339844 194.167969 75.339844 159.730469 C 75.339844 97.789062 125.554688 47.578125 187.496094 47.578125 C 249.4375 47.578125 299.652344 97.789062 299.652344 159.730469 C 299.652344 193.574219 284.660156 223.917969 260.957031 244.480469 Z M 187.496094 30.714844 C 116.242188 30.714844 58.480469 88.476562 58.480469 159.730469 C 58.480469 230.984375 116.242188 288.746094 187.496094 288.746094 C 258.75 288.746094 316.511719 230.984375 316.511719 159.730469 C 316.511719 88.476562 258.75 30.714844 187.496094 30.714844 " fill-opacity="1" fill-rule="nonzero"/></g><g clip-path="url(#319253e54e)"><path fill="#0a400c" d="M 62.0625 78.871094 C 62.421875 78.730469 62.816406 78.570312 63.246094 78.402344 C 63.683594 78.238281 64.15625 78.0625 64.648438 77.875 C 65.621094 77.496094 66.6875 77.078125 67.800781 76.644531 C 68.882812 76.199219 70.003906 75.738281 71.117188 75.285156 C 72.246094 74.851562 73.367188 74.4375 74.390625 74.027344 C 73.316406 74.277344 72.167969 74.578125 70.996094 74.90625 C 69.863281 75.261719 68.722656 75.660156 67.609375 76.0625 C 65.398438 76.875 63.277344 77.6875 61.875 78.394531 C 61.535156 75.882812 63.429688 73.753906 66.195312 72.65625 C 67.558594 72.089844 69.261719 71.886719 71.003906 71.992188 C 72.753906 72.105469 74.585938 72.5625 76.371094 73.414062 C 75.859375 74.273438 75.292969 75.050781 74.683594 75.75 C 74.082031 76.457031 73.414062 77.0625 72.792969 77.65625 C 71.515625 78.8125 70.125 79.65625 68.757812 80.167969 C 65.992188 81.15625 63.445312 80.953125 62.0625 78.871094 Z M 50.535156 96.757812 C 52.082031 95.9375 54.214844 94.714844 56.441406 93.402344 C 56.984375 93.0625 57.578125 92.746094 58.171875 92.425781 C 58.757812 92.105469 59.34375 91.78125 59.929688 91.457031 C 61.09375 90.8125 62.222656 90.171875 63.261719 89.5625 C 61.035156 90.453125 58.46875 91.589844 56.125 92.789062 C 53.855469 94.03125 51.742188 95.296875 50.28125 96.269531 C 49.917969 94.925781 50.152344 93.585938 50.828125 92.371094 C 51.503906 91.160156 52.601562 90.0625 54.113281 89.296875 C 55.59375 88.515625 57.359375 87.996094 59.273438 87.84375 C 61.191406 87.699219 63.214844 87.902344 65.332031 88.601562 C 63.664062 92.660156 60.804688 95.523438 58.074219 97.125 C 55.285156 98.671875 52.335938 98.785156 50.535156 96.757812 Z M 41.367188 117.015625 C 42.128906 116.4375 43.035156 115.726562 44.019531 114.9375 C 45.015625 114.15625 46.03125 113.269531 47.210938 112.414062 C 48.34375 111.546875 49.519531 110.652344 50.679688 109.765625 C 51.835938 108.890625 52.882812 107.996094 53.988281 107.214844 C 52.78125 107.832031 51.628906 108.589844 50.410156 109.371094 C 49.203125 110.152344 47.976562 110.984375 46.796875 111.816406 C 46.214844 112.234375 45.613281 112.640625 45.082031 113.066406 C 44.554688 113.492188 44.042969 113.910156 43.558594 114.304688 C 42.585938 115.113281 41.714844 115.867188 41.003906 116.515625 C 40.386719 115.121094 40.40625 113.625 40.929688 112.195312 C 41.066406 111.835938 41.21875 111.480469 41.421875 111.136719 C 41.632812 110.796875 41.875 110.46875 42.140625 110.144531 C 42.679688 109.5 43.320312 108.898438 44.050781 108.347656 C 45.519531 107.257812 47.320312 106.398438 49.367188 105.941406 C 51.464844 105.5 53.757812 105.441406 56.121094 105.859375 C 55.800781 107.015625 55.363281 108.082031 54.910156 109.097656 C 54.480469 110.125 53.976562 111.078125 53.414062 111.949219 C 52.300781 113.691406 50.882812 115.089844 49.558594 116.179688 C 46.828125 118.304688 43.660156 118.917969 41.367188 117.015625 Z M 35.136719 139.464844 C 35.855469 138.71875 36.699219 137.804688 37.617188 136.789062 C 38.082031 136.285156 38.535156 135.75 39.050781 135.210938 C 39.570312 134.675781 40.105469 134.117188 40.652344 133.554688 C 42.832031 131.304688 44.984375 128.910156 47.074219 126.878906 C 44.703125 128.589844 42.335938 130.800781 40.09375 132.984375 C 37.792969 135.152344 35.960938 137.371094 34.652344 139.003906 C 33.742188 137.605469 33.503906 135.984375 33.816406 134.355469 C 34.214844 132.742188 35.175781 131.121094 36.550781 129.703125 C 37.238281 128.992188 38.035156 128.332031 38.914062 127.75 C 39.792969 127.160156 40.839844 126.671875 41.914062 126.265625 C 44.078125 125.453125 46.519531 125.023438 49.117188 125.097656 C 48.835938 127.671875 48.042969 129.96875 47.203125 132.03125 C 46.753906 133.054688 46.226562 134.003906 45.640625 134.867188 C 45.070312 135.730469 44.375 136.492188 43.761719 137.1875 C 41.210938 139.921875 37.921875 141.125 35.136719 139.464844 Z M 32.46875 163.835938 C 33.75 161.984375 35.335938 159.332031 37.308594 156.558594 C 38.242188 155.1875 39.207031 153.761719 40.164062 152.351562 C 40.613281 151.65625 41.136719 150.976562 41.617188 150.304688 C 42.097656 149.640625 42.566406 148.984375 43.023438 148.351562 C 41.960938 149.46875 40.789062 150.703125 39.714844 152.007812 C 38.664062 153.316406 37.617188 154.683594 36.617188 156.039062 C 36.121094 156.726562 35.632812 157.402344 35.164062 158.054688 C 34.6875 158.71875 34.242188 159.371094 33.867188 160 C 33.089844 161.261719 32.40625 162.425781 31.863281 163.417969 C 30.65625 162.085938 30.085938 160.394531 30.164062 158.597656 C 30.308594 156.804688 31.042969 154.90625 32.261719 153.152344 C 32.878906 152.277344 33.582031 151.433594 34.453125 150.660156 C 35.339844 149.886719 36.332031 149.183594 37.414062 148.566406 C 39.578125 147.332031 42.105469 146.464844 44.890625 146.113281 C 44.960938 147.503906 44.902344 148.847656 44.734375 150.128906 C 44.648438 150.769531 44.539062 151.394531 44.402344 152.007812 C 44.296875 152.621094 44.175781 153.226562 44.023438 153.808594 C 43.4375 156.136719 42.425781 158.203125 41.246094 159.886719 C 39.011719 163.246094 35.726562 165.113281 32.46875 163.835938 Z M 33.914062 189.605469 C 34.425781 188.511719 35.023438 187.183594 35.664062 185.722656 C 35.976562 185 36.308594 184.238281 36.652344 183.449219 C 36.820312 183.058594 36.992188 182.664062 37.164062 182.261719 C 37.355469 181.859375 37.546875 181.449219 37.742188 181.039062 C 38.5 179.421875 39.285156 177.746094 40.0625 176.085938 C 40.25 175.675781 40.433594 175.269531 40.621094 174.867188 C 40.808594 174.460938 41.023438 174.058594 41.21875 173.664062 C 41.613281 172.875 41.996094 172.101562 42.371094 171.351562 C 41.898438 172.035156 41.414062 172.757812 40.929688 173.5 C 40.691406 173.875 40.445312 174.253906 40.199219 174.636719 C 39.96875 175.019531 39.753906 175.40625 39.527344 175.800781 C 38.636719 177.367188 37.757812 179 36.925781 180.617188 C 36.0625 182.234375 35.390625 183.820312 34.773438 185.296875 C 34.15625 186.773438 33.628906 188.136719 33.214844 189.285156 C 31.707031 188.09375 30.855469 186.394531 30.601562 184.476562 C 30.539062 183.996094 30.515625 183.503906 30.527344 183 C 30.558594 182.496094 30.632812 181.980469 30.742188 181.460938 C 30.960938 180.421875 31.324219 179.367188 31.820312 178.328125 C 32.316406 177.289062 32.949219 176.269531 33.703125 175.296875 C 34.484375 174.324219 35.433594 173.402344 36.464844 172.558594 C 38.546875 170.871094 41.074219 169.511719 43.964844 168.660156 C 44.621094 171.578125 44.570312 174.378906 44.40625 176.941406 C 44.171875 179.507812 43.429688 181.867188 42.574219 183.84375 C 40.75 187.785156 37.574219 190.363281 33.914062 189.605469 Z M 40.324219 216.105469 C 40.632812 214.859375 40.980469 213.355469 41.347656 211.710938 C 41.730469 210.058594 42.238281 208.230469 42.695312 206.378906 C 42.921875 205.457031 43.15625 204.519531 43.394531 203.574219 C 43.625 202.636719 43.929688 201.679688 44.1875 200.75 C 44.722656 198.878906 45.222656 197.0625 45.675781 195.378906 C 44.972656 196.972656 44.269531 198.71875 43.582031 200.539062 C 43.238281 201.449219 42.898438 202.378906 42.566406 203.3125 C 42.277344 204.234375 42.003906 205.160156 41.738281 206.082031 C 41.203125 207.925781 40.722656 209.746094 40.3125 211.429688 C 39.972656 213.089844 39.703125 214.617188 39.511719 215.898438 C 38.59375 215.425781 37.820312 214.789062 37.191406 214.019531 C 36.878906 213.636719 36.601562 213.222656 36.359375 212.78125 C 36.132812 212.335938 35.960938 211.859375 35.816406 211.363281 C 35.253906 209.367188 35.246094 207.035156 35.886719 204.664062 C 36.597656 202.273438 37.886719 199.863281 39.714844 197.722656 C 40.613281 196.652344 41.707031 195.636719 42.925781 194.714844 C 44.144531 193.792969 45.480469 192.964844 46.9375 192.25 C 47.984375 195.214844 48.761719 198.074219 48.878906 200.824219 C 48.902344 201.515625 48.941406 202.183594 48.957031 202.839844 C 48.96875 203.5 48.945312 204.144531 48.894531 204.777344 C 48.792969 206.046875 48.574219 207.257812 48.253906 208.390625 C 47.65625 210.644531 46.722656 212.566406 45.371094 213.949219 C 44.03125 215.328125 42.335938 216.152344 40.324219 216.105469 Z M 52.265625 242.4375 C 52.332031 241.070312 52.382812 239.421875 52.425781 237.628906 C 52.527344 235.820312 52.636719 233.835938 52.753906 231.773438 C 52.816406 230.75 52.828125 229.746094 52.933594 228.699219 C 53.023438 227.664062 53.113281 226.621094 53.199219 225.585938 C 53.378906 223.53125 53.484375 221.566406 53.726562 219.675781 C 53.214844 221.519531 52.867188 223.46875 52.523438 225.503906 C 52.199219 227.527344 51.828125 229.664062 51.695312 231.671875 C 51.519531 233.703125 51.394531 235.695312 51.3125 237.535156 C 51.257812 239.363281 51.324219 240.996094 51.378906 242.378906 C 49.273438 241.753906 47.5625 240.363281 46.589844 238.375 C 46.082031 237.394531 45.714844 236.289062 45.488281 235.109375 C 45.375 234.519531 45.300781 233.910156 45.261719 233.285156 C 45.230469 232.660156 45.265625 232 45.324219 231.34375 C 45.578125 228.703125 46.390625 225.953125 47.917969 223.335938 C 49.480469 220.703125 51.648438 218.25 54.402344 216.203125 C 55.304688 217.613281 56.019531 219.058594 56.621094 220.492188 C 57.277344 221.902344 57.78125 223.320312 58.140625 224.726562 C 58.324219 225.429688 58.457031 226.136719 58.585938 226.824219 C 58.734375 227.503906 58.84375 228.183594 58.921875 228.847656 C 59.078125 230.183594 59.097656 231.488281 58.996094 232.734375 C 58.871094 233.992188 58.710938 235.144531 58.398438 236.21875 C 58.089844 237.292969 57.65625 238.277344 57.101562 239.136719 C 55.984375 240.851562 54.378906 242.066406 52.265625 242.4375 Z M 70.277344 267.347656 C 69.867188 264.4375 69.074219 260.492188 68.53125 256.160156 C 68.382812 255.101562 68.226562 254.019531 68.070312 252.933594 C 67.910156 251.859375 67.824219 250.734375 67.695312 249.65625 C 67.570312 248.578125 67.453125 247.511719 67.332031 246.460938 C 67.269531 245.945312 67.210938 245.433594 67.148438 244.925781 C 67.089844 244.421875 67.0625 243.90625 67.015625 243.410156 C 66.984375 243.910156 66.949219 244.425781 66.933594 244.941406 C 66.929688 245.449219 66.925781 245.964844 66.921875 246.484375 C 66.925781 247.535156 66.941406 248.613281 66.96875 249.707031 C 67 250.800781 67.039062 251.910156 67.097656 253.023438 C 67.191406 254.109375 67.300781 255.199219 67.417969 256.273438 C 67.535156 257.351562 67.664062 258.417969 67.800781 259.457031 C 67.871094 259.976562 67.941406 260.492188 68.007812 260.996094 C 68.085938 261.492188 68.183594 261.96875 68.273438 262.445312 C 68.632812 264.332031 69.003906 266.054688 69.351562 267.484375 C 67.042969 267.28125 65.023438 266.148438 63.507812 264.351562 C 62.058594 262.503906 61.050781 260.054688 60.695312 257.304688 C 60.40625 254.5 60.714844 251.433594 61.710938 248.425781 C 62.78125 245.363281 64.539062 242.359375 66.976562 239.660156 C 67.589844 240.300781 68.15625 240.957031 68.683594 241.625 C 69.214844 242.289062 69.679688 242.980469 70.183594 243.632812 C 71.152344 244.960938 71.960938 246.332031 72.621094 247.722656 C 72.941406 248.425781 73.265625 249.097656 73.558594 249.773438 C 73.847656 250.453125 74.101562 251.132812 74.316406 251.8125 C 74.753906 253.167969 75.015625 254.542969 75.203125 255.835938 C 75.957031 260.949219 74.480469 265.671875 70.277344 267.347656 Z M 94.746094 289.28125 C 94.460938 288.578125 94.140625 287.800781 93.796875 286.960938 C 93.625 286.546875 93.445312 286.117188 93.261719 285.671875 C 93.085938 285.21875 92.90625 284.75 92.722656 284.273438 C 91.996094 282.398438 91.195312 280.332031 90.363281 278.1875 C 89.609375 276.054688 88.828125 273.835938 88.054688 271.644531 L 87.769531 270.84375 L 87.511719 270.023438 C 87.339844 269.480469 87.167969 268.941406 87 268.410156 C 86.660156 267.359375 86.324219 266.332031 86 265.332031 C 86.351562 267.378906 86.773438 269.613281 87.3125 271.863281 C 87.890625 274.066406 88.546875 276.328125 89.242188 278.535156 C 89.953125 280.722656 90.777344 282.761719 91.539062 284.679688 C 91.929688 285.628906 92.292969 286.5625 92.6875 287.378906 C 93.078125 288.195312 93.453125 288.957031 93.808594 289.644531 C 92.582031 289.816406 91.363281 289.75 90.230469 289.417969 C 89.113281 289.066406 88.050781 288.488281 87.070312 287.722656 C 86.09375 286.949219 85.183594 286.019531 84.425781 284.894531 C 83.683594 283.75 83.058594 282.464844 82.570312 281.070312 C 82.097656 279.667969 81.714844 278.210938 81.582031 276.605469 C 81.441406 275.003906 81.460938 273.347656 81.660156 271.667969 C 81.855469 269.984375 82.234375 268.28125 82.800781 266.589844 C 83.386719 264.875 84.179688 263.15625 85.152344 261.492188 C 86.628906 262.597656 88.085938 263.660156 89.339844 264.851562 C 89.96875 265.441406 90.558594 266.050781 91.113281 266.675781 C 91.671875 267.296875 92.238281 267.886719 92.738281 268.515625 C 93.757812 269.761719 94.621094 271.074219 95.351562 272.394531 C 96.121094 273.667969 96.742188 274.976562 97.207031 276.28125 C 97.679688 277.578125 97.972656 278.910156 98.152344 280.136719 C 98.332031 281.367188 98.34375 282.5625 98.167969 283.691406 C 97.820312 285.949219 96.742188 287.925781 94.746094 289.28125 Z M 125.605469 306.28125 C 125.136719 305.636719 124.617188 304.921875 124.058594 304.152344 C 123.511719 303.363281 122.929688 302.515625 122.316406 301.625 C 121.707031 300.753906 121.070312 299.835938 120.410156 298.886719 C 120.082031 298.417969 119.75 297.945312 119.414062 297.464844 C 119.082031 296.984375 118.761719 296.460938 118.433594 295.957031 C 117.78125 294.957031 117.117188 293.929688 116.453125 292.898438 C 116.121094 292.394531 115.792969 291.886719 115.460938 291.378906 L 114.96875 290.625 L 114.496094 289.839844 C 113.261719 287.800781 112.039062 285.785156 110.890625 283.894531 C 111.726562 285.910156 112.71875 288.039062 113.792969 290.234375 C 114.324219 291.347656 114.914062 292.402344 115.519531 293.453125 C 116.121094 294.511719 116.742188 295.566406 117.367188 296.605469 C 118.597656 298.722656 119.949219 300.585938 121.207031 302.351562 C 121.839844 303.226562 122.453125 304.058594 123.042969 304.832031 C 123.625 305.617188 124.21875 306.257812 124.746094 306.882812 C 119.886719 308.835938 114.449219 306.105469 111.117188 300.835938 C 110.265625 299.5625 109.585938 298.050781 109.050781 296.457031 C 108.515625 294.863281 108.132812 293.167969 107.933594 291.410156 C 107.71875 289.667969 107.734375 287.785156 107.9375 285.886719 C 108.140625 283.984375 108.539062 282.058594 109.148438 280.121094 C 110.960938 280.832031 112.605469 281.726562 114.203125 282.570312 C 114.992188 283.011719 115.746094 283.484375 116.460938 283.984375 C 117.1875 284.472656 117.851562 285.03125 118.53125 285.515625 C 119.875 286.527344 121.078125 287.636719 122.140625 288.808594 C 122.40625 289.101562 122.660156 289.402344 122.910156 289.703125 C 123.164062 289.984375 123.410156 290.273438 123.648438 290.566406 C 124.121094 291.144531 124.558594 291.742188 124.957031 292.347656 C 125.75 293.558594 126.390625 294.808594 126.855469 296.0625 C 127.320312 297.316406 127.640625 298.503906 127.734375 299.707031 C 127.933594 302.097656 127.320312 304.394531 125.605469 306.28125 Z M 162.390625 315.882812 C 159.769531 313.777344 156.109375 310.609375 152.351562 307.316406 C 150.53125 305.621094 148.636719 303.859375 146.765625 302.121094 C 144.960938 300.308594 143.214844 298.566406 141.589844 296.984375 C 142.953125 298.804688 144.5 300.738281 146.15625 302.699219 C 147.828125 304.609375 149.636719 306.433594 151.445312 308.246094 C 152.347656 309.171875 153.269531 309.984375 154.179688 310.777344 C 155.089844 311.574219 155.988281 312.34375 156.863281 313.074219 C 157.734375 313.792969 158.578125 314.515625 159.386719 315.105469 C 160.195312 315.699219 160.964844 316.242188 161.667969 316.726562 C 160.5625 317.539062 159.335938 318.113281 158.050781 318.378906 C 156.769531 318.621094 155.425781 318.609375 154.066406 318.371094 C 153.382812 318.25 152.699219 318.074219 152.019531 317.847656 C 151.335938 317.621094 150.660156 317.339844 150 316.957031 C 148.679688 316.21875 147.394531 315.285156 146.199219 314.171875 C 145.601562 313.617188 145.027344 313.023438 144.480469 312.382812 C 143.933594 311.734375 143.425781 311.007812 142.949219 310.265625 C 141.992188 308.773438 141.167969 307.140625 140.511719 305.398438 C 140.183594 304.523438 139.898438 303.625 139.65625 302.699219 C 139.421875 301.753906 139.238281 300.773438 139.097656 299.78125 C 138.820312 297.789062 138.738281 295.71875 138.867188 293.585938 C 139.875 293.722656 140.851562 293.902344 141.804688 294.121094 C 142.757812 294.332031 143.707031 294.507812 144.613281 294.769531 C 145.523438 295.015625 146.40625 295.304688 147.257812 295.628906 C 147.6875 295.789062 148.105469 295.964844 148.519531 296.136719 C 148.9375 296.292969 149.351562 296.453125 149.753906 296.628906 C 151.375 297.3125 152.878906 298.132812 154.253906 299.058594 C 155.644531 299.933594 156.917969 300.859375 158.039062 301.894531 C 159.164062 302.914062 160.132812 304.066406 160.941406 305.167969 C 161.753906 306.277344 162.386719 307.441406 162.804688 308.632812 C 163.640625 311.019531 163.628906 313.519531 162.390625 315.882812 Z M 53.59375 83.800781 C 53.566406 81.742188 53.871094 78.917969 54.28125 75.761719 C 54.394531 74.96875 54.507812 74.164062 54.621094 73.351562 C 54.6875 72.945312 54.742188 72.527344 54.816406 72.128906 L 55.0625 70.929688 C 55.398438 69.328125 55.765625 67.734375 56.148438 66.234375 C 55.835938 69.273438 55.328125 72.582031 55.078125 75.769531 C 54.917969 77.328125 54.761719 78.828125 54.621094 80.195312 C 54.542969 80.867188 54.46875 81.507812 54.402344 82.109375 C 54.347656 82.714844 54.300781 83.277344 54.253906 83.785156 C 55.039062 83.601562 55.707031 83.253906 56.34375 82.828125 C 56.980469 82.398438 57.527344 81.851562 57.992188 81.207031 C 58.914062 79.917969 59.488281 78.226562 59.695312 76.289062 C 60.226562 72.515625 59.375 67.71875 56.683594 63.351562 C 54.554688 65.292969 52.839844 67.472656 51.585938 69.640625 C 50.417969 71.871094 49.726562 74.101562 49.484375 76.085938 C 49.371094 77.078125 49.355469 78.003906 49.480469 78.867188 C 49.621094 79.734375 49.871094 80.515625 50.226562 81.191406 C 50.933594 82.546875 52.070312 83.464844 53.59375 83.800781 Z M 42.550781 103.511719 C 42.257812 101.269531 42.085938 98.066406 42 94.472656 C 41.964844 93.566406 42.011719 92.675781 42.042969 91.761719 C 42.078125 90.847656 42.121094 89.925781 42.175781 89.003906 C 42.292969 87.164062 42.398438 85.292969 42.628906 83.574219 C 42.703125 86.945312 42.789062 90.777344 42.871094 94.359375 C 43.066406 97.933594 43.210938 101.148438 43.25 103.402344 C 44.957031 102.742188 46.214844 101.535156 47.003906 99.941406 C 47.402344 99.148438 47.6875 98.257812 47.855469 97.289062 C 48.023438 96.320312 48.164062 95.320312 48.148438 94.238281 C 48.136719 92.089844 47.6875 89.714844 46.789062 87.308594 C 45.921875 84.921875 44.664062 82.535156 42.859375 80.324219 C 42.320312 80.933594 41.808594 81.5625 41.332031 82.195312 C 41.09375 82.511719 40.859375 82.828125 40.640625 83.148438 C 40.433594 83.480469 40.234375 83.8125 40.042969 84.144531 C 39.277344 85.476562 38.640625 86.816406 38.128906 88.136719 C 37.875 88.800781 37.648438 89.453125 37.457031 90.101562 C 37.363281 90.421875 37.273438 90.742188 37.195312 91.0625 C 37.128906 91.386719 37.070312 91.707031 37.019531 92.023438 C 36.816406 93.300781 36.734375 94.515625 36.769531 95.644531 C 36.847656 97.90625 37.390625 99.816406 38.378906 101.183594 C 39.394531 102.570312 40.8125 103.394531 42.550781 103.511719 Z M 34.226562 125.636719 C 33.902344 124.441406 33.542969 122.972656 33.175781 121.304688 C 32.996094 120.472656 32.8125 119.59375 32.628906 118.671875 C 32.457031 117.757812 32.238281 116.785156 32.125 115.820312 C 31.863281 113.882812 31.621094 111.832031 31.421875 109.777344 C 31.332031 108.753906 31.210938 107.710938 31.175781 106.707031 C 31.140625 105.703125 31.121094 104.714844 31.109375 103.746094 C 31.601562 107.460938 32.453125 111.734375 33.089844 115.558594 C 33.167969 116.035156 33.25 116.511719 33.328125 116.976562 C 33.429688 117.449219 33.527344 117.914062 33.621094 118.375 C 33.808594 119.285156 33.992188 120.164062 34.164062 121.003906 C 34.503906 122.675781 34.789062 124.164062 35 125.390625 C 38.550781 123.378906 39.5 119.246094 38.832031 114.558594 C 37.96875 109.820312 35.480469 104.433594 30.816406 100.09375 C 29.84375 101.628906 29.015625 103.203125 28.328125 104.773438 C 28.15625 105.164062 27.988281 105.554688 27.84375 105.949219 C 27.707031 106.347656 27.582031 106.746094 27.464844 107.140625 C 27.230469 107.933594 27.027344 108.71875 26.863281 109.492188 C 26.527344 111.042969 26.332031 112.542969 26.261719 113.964844 C 26.195312 115.382812 26.359375 116.753906 26.582031 117.992188 C 27.515625 122.96875 30.324219 125.980469 34.226562 125.636719 Z M 29.28125 149.925781 C 28.71875 148.6875 28.070312 147.15625 27.378906 145.410156 C 27.035156 144.535156 26.679688 143.609375 26.320312 142.640625 C 26.144531 142.15625 25.949219 141.660156 25.785156 141.15625 C 25.628906 140.65625 25.472656 140.144531 25.3125 139.632812 C 24.6875 137.5625 24.066406 135.371094 23.492188 133.160156 C 23.183594 132.046875 22.976562 130.953125 22.761719 129.863281 C 22.550781 128.777344 22.355469 127.695312 22.175781 126.640625 C 22.484375 127.636719 22.804688 128.664062 23.128906 129.714844 C 23.289062 130.234375 23.449219 130.761719 23.609375 131.289062 C 23.765625 131.8125 23.9375 132.34375 24.128906 132.882812 C 24.851562 134.984375 25.585938 137.121094 26.292969 139.179688 C 26.65625 140.195312 26.949219 141.179688 27.332031 142.140625 C 27.695312 143.097656 28.050781 144.019531 28.386719 144.902344 C 29.050781 146.65625 29.632812 148.214844 30.085938 149.507812 C 31.808594 148.105469 32.78125 146.246094 33.082031 144.113281 C 33.15625 143.582031 33.183594 143.03125 33.183594 142.464844 C 33.207031 141.90625 33.191406 141.332031 33.132812 140.746094 C 33.023438 139.574219 32.753906 138.351562 32.335938 137.101562 C 31.929688 135.855469 31.339844 134.574219 30.671875 133.304688 C 30.027344 132.039062 29.246094 130.773438 28.328125 129.53125 C 26.488281 127.054688 24.117188 124.675781 21.242188 122.707031 C 17.984375 130.074219 17.742188 137.734375 19.65625 142.957031 C 21.550781 148.21875 25.113281 150.988281 29.28125 149.925781 Z M 28.324219 175.945312 C 27.4375 174.722656 26.519531 173.1875 25.457031 171.433594 C 24.933594 170.554688 24.386719 169.621094 23.832031 168.644531 C 23.253906 167.664062 22.738281 166.640625 22.222656 165.578125 C 21.183594 163.464844 20.128906 161.207031 19.117188 158.921875 C 18.160156 156.640625 17.355469 154.328125 16.582031 152.109375 C 17.585938 154.140625 18.660156 156.308594 19.75 158.507812 C 20.902344 160.652344 22.070312 162.820312 23.199219 164.917969 C 23.761719 165.949219 24.261719 166.957031 24.832031 167.925781 C 25.390625 168.886719 25.933594 169.820312 26.453125 170.710938 C 27.476562 172.476562 28.367188 174.054688 29.089844 175.359375 C 30.683594 173.535156 31.40625 171.363281 31.351562 169.019531 C 31.34375 168.433594 31.265625 167.839844 31.179688 167.234375 C 31.105469 166.628906 30.984375 166.011719 30.820312 165.394531 C 30.492188 164.152344 29.984375 162.886719 29.316406 161.617188 C 28.980469 160.980469 28.605469 160.34375 28.191406 159.710938 C 27.984375 159.394531 27.765625 159.078125 27.542969 158.761719 C 27.332031 158.449219 27.113281 158.132812 26.886719 157.820312 C 25.972656 156.574219 24.90625 155.34375 23.699219 154.164062 C 22.496094 152.984375 21.152344 151.855469 19.679688 150.816406 C 18.207031 149.773438 16.605469 148.820312 14.9375 148.007812 C 14.859375 148.273438 14.785156 148.539062 14.707031 148.804688 C 14.652344 149.070312 14.59375 149.335938 14.535156 149.597656 C 14.429688 150.132812 14.328125 150.660156 14.242188 151.191406 C 14.066406 152.246094 13.933594 153.292969 13.839844 154.324219 C 13.746094 155.359375 13.695312 156.378906 13.679688 157.378906 C 13.648438 158.375 13.769531 159.355469 13.859375 160.3125 C 14.304688 164.128906 15.1875 167.515625 16.738281 170.175781 C 18.222656 172.835938 20.03125 174.769531 22.027344 175.78125 C 24.066406 176.789062 26.226562 176.882812 28.324219 175.945312 Z M 32.042969 203.105469 C 30.902344 201.964844 29.527344 200.527344 28.050781 198.859375 C 26.648438 197.175781 25.117188 195.265625 23.546875 193.203125 C 22.738281 192.175781 22.003906 191.097656 21.265625 189.996094 C 20.527344 188.894531 19.785156 187.769531 19.054688 186.632812 C 17.542969 184.363281 16.296875 182.027344 15.097656 179.773438 C 17.917969 183.835938 21.339844 188.308594 24.441406 192.316406 C 26.042969 194.28125 27.585938 196.175781 28.992188 197.902344 C 29.660156 198.757812 30.382812 199.546875 31.015625 200.289062 C 31.644531 201.027344 32.230469 201.714844 32.761719 202.339844 C 34.082031 200.097656 34.316406 197.679688 33.933594 195.175781 C 33.714844 193.929688 33.285156 192.671875 32.660156 191.417969 C 32.503906 191.105469 32.335938 190.792969 32.15625 190.480469 C 31.992188 190.164062 31.816406 189.851562 31.632812 189.535156 C 31.261719 188.910156 30.84375 188.285156 30.378906 187.667969 C 29.457031 186.433594 28.359375 185.222656 27.105469 184.054688 C 26.464844 183.476562 25.835938 182.902344 25.167969 182.34375 C 24.496094 181.785156 23.789062 181.238281 23.042969 180.714844 C 20.078125 178.625 16.511719 176.828125 12.609375 175.667969 C 12.199219 180.4375 12.503906 185.0625 13.679688 189.089844 C 14.699219 193.136719 16.5625 196.570312 18.5625 199.160156 C 19.070312 199.804688 19.570312 200.402344 20.128906 200.9375 C 20.6875 201.46875 21.257812 201.945312 21.832031 202.363281 C 22.980469 203.199219 24.152344 203.796875 25.320312 204.144531 C 27.652344 204.839844 29.960938 204.519531 32.042969 203.105469 Z M 41.121094 230.636719 C 38.15625 228.726562 34.261719 225.609375 30.132812 221.835938 C 28.15625 219.921875 26.039062 217.875 24.074219 215.730469 C 22.167969 213.566406 20.265625 211.351562 18.554688 209.183594 C 20.480469 211.03125 22.539062 213.007812 24.628906 215.011719 C 25.628906 216.003906 26.738281 216.960938 27.800781 217.914062 C 28.855469 218.855469 29.902344 219.792969 30.933594 220.714844 C 31.445312 221.167969 31.949219 221.617188 32.445312 222.0625 C 32.964844 222.492188 33.476562 222.917969 33.980469 223.335938 C 34.976562 224.164062 35.941406 224.964844 36.859375 225.730469 C 37.773438 226.484375 38.609375 227.210938 39.429688 227.871094 C 40.25 228.519531 41.011719 229.128906 41.703125 229.675781 C 42.171875 228.363281 42.3125 227.066406 42.289062 225.753906 C 42.269531 224.4375 42 223.140625 41.507812 221.871094 C 40.457031 219.355469 38.757812 216.871094 36.265625 214.632812 C 35.652344 214.070312 34.964844 213.535156 34.289062 212.996094 C 33.613281 212.453125 32.898438 211.933594 32.140625 211.429688 C 30.632812 210.421875 28.960938 209.492188 27.160156 208.667969 C 25.335938 207.851562 23.480469 207.109375 21.484375 206.523438 C 19.496094 205.933594 17.394531 205.488281 15.210938 205.234375 C 15.414062 207.832031 15.75 210.367188 16.449219 212.722656 C 16.773438 213.910156 17.136719 215.0625 17.535156 216.175781 C 17.933594 217.289062 18.34375 218.371094 18.871094 219.382812 C 19.882812 221.417969 21 223.277344 22.183594 224.925781 C 22.757812 225.757812 23.4375 226.5 24.085938 227.203125 C 24.746094 227.90625 25.410156 228.550781 26.082031 229.136719 C 27.4375 230.304688 28.773438 231.246094 30.152344 231.902344 C 31.546875 232.554688 32.917969 232.953125 34.226562 233.085938 C 36.84375 233.351562 39.214844 232.542969 41.121094 230.636719 Z M 56.1875 257.429688 C 55.324219 257.070312 54.371094 256.660156 53.34375 256.195312 C 52.3125 255.730469 51.199219 255.21875 50.09375 254.609375 C 48.972656 254.015625 47.789062 253.371094 46.5625 252.683594 C 45.945312 252.335938 45.320312 251.980469 44.6875 251.621094 C 44.371094 251.4375 44.054688 251.25 43.734375 251.066406 C 43.425781 250.867188 43.113281 250.671875 42.800781 250.472656 C 41.554688 249.671875 40.277344 248.835938 38.992188 247.96875 C 37.710938 247.097656 36.382812 246.21875 35.171875 245.261719 C 33.9375 244.316406 32.707031 243.355469 31.496094 242.382812 C 30.894531 241.894531 30.296875 241.410156 29.703125 240.929688 C 29.113281 240.441406 28.578125 239.933594 28.027344 239.4375 C 32.839844 242.6875 38.292969 246.167969 43.410156 249.125 C 44.039062 249.5 44.664062 249.867188 45.28125 250.234375 C 45.917969 250.578125 46.542969 250.921875 47.164062 251.257812 C 48.378906 251.921875 49.558594 252.566406 50.683594 253.183594 C 52.871094 254.429688 54.964844 255.429688 56.613281 256.3125 C 56.816406 254.835938 56.730469 253.417969 56.382812 252.074219 C 56.078125 250.699219 55.535156 249.386719 54.75 248.15625 C 53.128906 245.734375 50.816406 243.480469 47.734375 241.640625 C 46.164062 240.734375 44.566406 239.847656 42.75 239.101562 C 40.945312 238.351562 38.992188 237.710938 36.921875 237.207031 C 32.886719 236.148438 28.375 235.613281 23.660156 235.933594 C 24.035156 237.285156 24.460938 238.609375 24.925781 239.894531 C 25.394531 241.179688 25.875 242.445312 26.492188 243.621094 C 27.691406 245.984375 28.976562 248.207031 30.425781 250.175781 C 31.921875 252.121094 33.492188 253.855469 35.085938 255.355469 C 35.863281 256.117188 36.742188 256.761719 37.570312 257.371094 C 38.410156 257.976562 39.246094 258.519531 40.078125 259 C 43.351562 260.949219 46.695312 261.726562 49.480469 261.460938 C 52.277344 261.195312 54.589844 259.839844 56.1875 257.429688 Z M 77.671875 282.175781 C 75.726562 281.792969 73.375 281.230469 70.710938 280.53125 C 70.050781 280.351562 69.351562 280.183594 68.671875 279.964844 C 67.992188 279.746094 67.296875 279.519531 66.585938 279.292969 C 65.167969 278.824219 63.691406 278.320312 62.175781 277.785156 C 60.640625 277.265625 59.171875 276.617188 57.640625 275.984375 C 56.117188 275.339844 54.578125 274.667969 53.039062 273.976562 C 51.527344 273.261719 50.0625 272.488281 48.59375 271.722656 C 47.136719 270.945312 45.667969 270.183594 44.308594 269.375 C 47.183594 270.5625 50.265625 271.765625 53.292969 272.984375 C 56.414062 274.121094 59.523438 275.242188 62.492188 276.269531 C 65.539062 277.226562 68.382812 278.152344 70.984375 278.933594 C 73.628906 279.667969 75.960938 280.328125 77.863281 280.898438 C 77.433594 274.488281 72.488281 270.140625 65.410156 267.480469 C 61.777344 266.238281 57.71875 265.328125 53.171875 265.140625 C 50.886719 265.058594 48.609375 265.0625 46.234375 265.289062 C 43.871094 265.511719 41.449219 265.933594 39.023438 266.589844 C 40.390625 269.273438 41.871094 271.847656 43.65625 274.066406 C 45.402344 276.3125 47.203125 278.402344 49.214844 280.109375 C 50.199219 280.980469 51.191406 281.792969 52.1875 282.542969 C 52.6875 282.917969 53.183594 283.277344 53.679688 283.621094 C 54.191406 283.953125 54.710938 284.261719 55.222656 284.558594 C 57.273438 285.738281 59.289062 286.667969 61.21875 287.332031 C 65.164062 288.574219 68.761719 288.726562 71.59375 287.855469 C 74.445312 286.964844 76.582031 285.011719 77.671875 282.175781 Z M 105.871094 302.976562 C 104.8125 303.011719 103.636719 303.035156 102.355469 303.039062 C 101.078125 303.035156 99.667969 303.058594 98.238281 302.949219 C 96.796875 302.863281 95.269531 302.753906 93.671875 302.617188 C 92.871094 302.546875 92.054688 302.472656 91.226562 302.394531 C 90.394531 302.320312 89.582031 302.183594 88.742188 302.066406 C 85.398438 301.570312 81.8125 301.027344 78.375 300.167969 C 76.640625 299.761719 74.890625 299.339844 73.175781 298.886719 C 71.496094 298.386719 69.839844 297.871094 68.222656 297.34375 C 69.839844 297.644531 71.507812 297.953125 73.214844 298.269531 C 74.917969 298.5625 76.679688 298.804688 78.414062 299.074219 C 80.160156 299.328125 81.867188 299.617188 83.605469 299.828125 C 85.332031 300.019531 87.046875 300.210938 88.734375 300.402344 C 92.039062 300.820312 95.304688 300.976562 98.167969 301.207031 C 98.882812 301.261719 99.578125 301.316406 100.257812 301.367188 C 100.9375 301.410156 101.609375 301.425781 102.246094 301.457031 C 103.515625 301.519531 104.695312 301.578125 105.761719 301.628906 C 105.261719 300.003906 104.496094 298.582031 103.5 297.363281 C 102.519531 296.121094 101.351562 295.003906 99.957031 294.117188 C 99.265625 293.667969 98.523438 293.269531 97.730469 292.914062 C 96.9375 292.570312 96.144531 292.195312 95.28125 291.910156 C 93.570312 291.316406 91.683594 290.910156 89.65625 290.675781 C 87.683594 290.378906 85.5625 290.261719 83.335938 290.324219 C 82.222656 290.347656 81.074219 290.4375 79.925781 290.542969 C 78.789062 290.636719 77.628906 290.777344 76.453125 290.964844 C 74.101562 291.339844 71.683594 291.90625 69.25 292.6875 C 66.804688 293.484375 64.433594 294.398438 62.058594 295.617188 C 62.554688 296.253906 63.0625 296.882812 63.578125 297.492188 C 64.113281 298.078125 64.660156 298.652344 65.210938 299.210938 C 66.316406 300.332031 67.445312 301.398438 68.59375 302.402344 C 69.71875 303.429688 70.953125 304.292969 72.152344 305.136719 C 73.363281 305.972656 74.578125 306.746094 75.789062 307.453125 C 76.089844 307.628906 76.394531 307.800781 76.695312 307.976562 C 77.007812 308.128906 77.316406 308.285156 77.625 308.4375 C 78.242188 308.738281 78.859375 309.023438 79.472656 309.289062 C 80.699219 309.824219 81.914062 310.296875 83.101562 310.703125 C 83.699219 310.902344 84.28125 311.097656 84.871094 311.257812 C 85.46875 311.410156 86.058594 311.542969 86.636719 311.664062 C 87.800781 311.898438 88.929688 312.070312 90.019531 312.179688 C 92.199219 312.402344 94.214844 312.375 96.078125 312.011719 C 97.921875 311.675781 99.550781 311.101562 100.925781 310.304688 C 103.671875 308.710938 105.390625 306.21875 105.871094 302.976562 Z M 140.542969 317.742188 C 139.46875 318.050781 138.265625 318.375 136.945312 318.707031 C 135.628906 319.039062 134.191406 319.394531 132.6875 319.648438 C 131.179688 319.921875 129.570312 320.199219 127.886719 320.460938 C 127.046875 320.589844 126.179688 320.734375 125.308594 320.84375 C 124.433594 320.929688 123.550781 321.019531 122.660156 321.109375 C 120.863281 321.277344 119.011719 321.429688 117.125 321.558594 C 115.246094 321.664062 113.367188 321.671875 111.457031 321.695312 C 107.621094 321.785156 103.863281 321.511719 100.234375 321.226562 C 101.988281 321.140625 103.800781 321.050781 105.652344 320.957031 C 106.570312 320.902344 107.476562 320.882812 108.414062 320.800781 C 109.34375 320.71875 110.28125 320.640625 111.21875 320.558594 C 113.066406 320.394531 114.925781 320.234375 116.773438 320.070312 C 118.617188 319.871094 120.453125 319.613281 122.222656 319.390625 C 123.101562 319.277344 123.972656 319.164062 124.835938 319.050781 C 125.691406 318.945312 126.535156 318.828125 127.375 318.675781 C 129.027344 318.394531 130.628906 318.121094 132.152344 317.863281 C 135.15625 317.402344 137.875 316.769531 140.078125 316.363281 C 139.152344 314.828125 138 313.566406 136.667969 312.574219 C 135.351562 311.519531 133.859375 310.695312 132.203125 310.132812 C 131.378906 309.851562 130.511719 309.636719 129.609375 309.464844 C 128.722656 309.261719 127.800781 309.117188 126.84375 309.03125 C 125.886719 308.945312 124.898438 308.914062 123.878906 308.941406 C 122.859375 308.964844 121.800781 309.070312 120.75 309.144531 C 118.636719 309.335938 116.414062 309.742188 114.125 310.359375 C 112.972656 310.6875 111.832031 311.003906 110.675781 311.378906 C 109.523438 311.753906 108.355469 312.183594 107.183594 312.667969 C 104.84375 313.617188 102.449219 314.839844 100.148438 316.171875 C 97.847656 317.511719 95.578125 319.078125 93.417969 320.882812 C 94.777344 321.945312 96.140625 322.988281 97.5625 323.886719 C 98.992188 324.769531 100.433594 325.585938 101.882812 326.339844 C 104.746094 327.902344 107.746094 328.9375 110.613281 329.820312 C 111.332031 330.035156 112.046875 330.234375 112.753906 330.417969 C 113.472656 330.574219 114.1875 330.710938 114.890625 330.835938 C 116.300781 331.078125 117.679688 331.265625 119.019531 331.386719 C 121.679688 331.671875 124.25 331.503906 126.5625 331.195312 C 131.179688 330.609375 134.9375 328.84375 137.347656 326.523438 C 139.773438 324.1875 140.890625 321.1875 140.542969 317.742188 Z M 180.882812 323.832031 C 178.847656 325.03125 176.300781 326.425781 173.355469 327.921875 C 171.886719 328.597656 170.316406 329.296875 168.664062 330.007812 C 167.828125 330.363281 166.984375 330.722656 166.125 331.082031 C 165.6875 331.261719 165.25 331.441406 164.8125 331.625 C 164.371094 331.785156 163.925781 331.945312 163.480469 332.105469 C 159.898438 333.363281 156.035156 334.738281 152.140625 335.679688 C 150.191406 336.179688 148.210938 336.699219 146.257812 337.113281 C 144.308594 337.488281 142.367188 337.839844 140.460938 338.152344 C 142.242188 337.613281 144.078125 337.054688 145.957031 336.484375 C 146.882812 336.214844 147.824219 335.882812 148.761719 335.558594 C 149.699219 335.238281 150.636719 334.910156 151.582031 334.585938 C 152.511719 334.261719 153.449219 333.9375 154.382812 333.613281 C 155.3125 333.289062 156.234375 332.980469 157.15625 332.601562 C 158.976562 331.886719 160.785156 331.171875 162.5625 330.46875 C 163.433594 330.121094 164.296875 329.777344 165.148438 329.433594 C 165.996094 329.058594 166.832031 328.6875 167.65625 328.320312 C 169.269531 327.601562 170.835938 326.90625 172.328125 326.242188 C 172.695312 326.082031 173.058594 325.917969 173.417969 325.757812 C 173.777344 325.585938 174.128906 325.414062 174.476562 325.246094 C 175.167969 324.90625 175.835938 324.578125 176.484375 324.265625 C 177.765625 323.648438 178.957031 323.078125 180.035156 322.5625 C 177.289062 319.886719 173.957031 318.699219 170.277344 318.324219 C 169.359375 318.253906 168.414062 318.253906 167.445312 318.324219 C 166.964844 318.355469 166.472656 318.421875 165.984375 318.476562 C 165.492188 318.519531 164.996094 318.582031 164.496094 318.664062 C 162.496094 318.980469 160.417969 319.574219 158.292969 320.414062 C 156.179688 321.171875 154.019531 322.152344 151.839844 323.382812 C 150.75 323.984375 149.648438 324.695312 148.570312 325.363281 C 147.484375 326.046875 146.402344 326.789062 145.328125 327.585938 C 143.179688 329.175781 141.058594 330.992188 139.03125 333.019531 C 137.019531 334.988281 135.101562 337.167969 133.355469 339.574219 C 140.070312 342.628906 147.085938 343.988281 153.46875 344.214844 C 154.265625 344.265625 155.058594 344.246094 155.839844 344.214844 C 156.621094 344.183594 157.390625 344.140625 158.148438 344.082031 C 159.664062 343.964844 161.132812 343.792969 162.539062 343.570312 C 162.886719 343.507812 163.238281 343.449219 163.582031 343.390625 C 163.925781 343.308594 164.269531 343.230469 164.605469 343.148438 C 165.28125 342.980469 165.941406 342.800781 166.585938 342.613281 C 167.871094 342.226562 169.089844 341.800781 170.230469 341.332031 C 171.375 340.851562 172.441406 340.382812 173.429688 339.773438 C 174.417969 339.183594 175.328125 338.558594 176.148438 337.902344 C 177.792969 336.589844 179.089844 335.160156 180.007812 333.648438 C 181.851562 330.625 182.175781 327.269531 180.882812 323.832031 Z M 63.675781 68.855469 C 64.433594 67.917969 65.375 66.800781 66.4375 65.574219 C 66.972656 64.964844 67.535156 64.328125 68.117188 63.664062 C 68.410156 63.339844 68.699219 63 69.015625 62.675781 C 69.335938 62.355469 69.660156 62.03125 69.988281 61.707031 C 71.300781 60.402344 72.675781 59.070312 74.046875 57.769531 C 74.71875 57.101562 75.46875 56.527344 76.167969 55.929688 C 76.878906 55.347656 77.578125 54.777344 78.257812 54.222656 C 77.652344 54.851562 77.027344 55.5 76.390625 56.164062 C 75.757812 56.832031 75.070312 57.464844 74.457031 58.183594 C 73.191406 59.582031 71.898438 60.980469 70.632812 62.316406 C 70.316406 62.648438 70.003906 62.980469 69.691406 63.304688 C 69.382812 63.632812 69.105469 63.976562 68.8125 64.304688 C 68.234375 64.957031 67.675781 65.59375 67.140625 66.199219 C 66.066406 67.398438 65.078125 68.464844 64.242188 69.332031 C 65.875 70.136719 67.632812 70.175781 69.335938 69.609375 C 70.1875 69.328125 71.027344 68.894531 71.839844 68.320312 C 72.652344 67.753906 73.40625 67.023438 74.199219 66.25 C 75.761719 64.675781 77.105469 62.582031 78.214844 60.160156 C 79.382812 57.796875 80.25 55.035156 80.691406 51.972656 C 77.675781 52.097656 74.773438 52.816406 72.183594 53.914062 C 69.648438 55.070312 67.5 56.667969 65.828125 58.371094 C 64.976562 59.207031 64.339844 60.160156 63.820312 61.089844 C 63.304688 62.019531 62.9375 62.957031 62.738281 63.867188 C 62.339844 65.691406 62.613281 67.414062 63.675781 68.855469 " fill-opacity="1" fill-rule="evenodd"/></g><g clip-path="url(#b3ffd6eb63)"><path fill="#0a400c" d="M 306.242188 80.167969 C 304.875 79.65625 303.484375 78.8125 302.207031 77.65625 C 301.585938 77.0625 300.917969 76.457031 300.3125 75.75 C 299.707031 75.050781 299.140625 74.269531 298.628906 73.414062 C 300.414062 72.5625 302.246094 72.105469 303.996094 71.992188 C 305.738281 71.886719 307.441406 72.089844 308.804688 72.65625 C 311.570312 73.753906 313.464844 75.882812 313.125 78.394531 C 311.722656 77.6875 309.601562 76.875 307.390625 76.058594 C 306.277344 75.660156 305.136719 75.261719 304 74.90625 C 302.832031 74.574219 301.683594 74.277344 300.605469 74.027344 C 301.632812 74.4375 302.753906 74.851562 303.882812 75.28125 C 304.996094 75.738281 306.117188 76.199219 307.199219 76.640625 C 308.3125 77.078125 309.378906 77.496094 310.351562 77.875 C 310.84375 78.0625 311.3125 78.238281 311.753906 78.402344 C 312.183594 78.574219 312.578125 78.730469 312.9375 78.871094 C 311.550781 80.953125 309.007812 81.15625 306.242188 80.167969 Z M 316.925781 97.125 C 314.195312 95.519531 311.335938 92.660156 309.667969 88.601562 C 311.785156 87.902344 313.808594 87.699219 315.726562 87.847656 C 317.640625 87.996094 319.40625 88.515625 320.886719 89.296875 C 322.398438 90.0625 323.496094 91.15625 324.171875 92.371094 C 324.847656 93.585938 325.082031 94.925781 324.71875 96.269531 C 323.253906 95.296875 321.144531 94.03125 318.871094 92.789062 C 316.53125 91.589844 313.964844 90.453125 311.738281 89.5625 C 312.777344 90.171875 313.90625 90.8125 315.070312 91.457031 C 315.65625 91.78125 316.242188 92.105469 316.828125 92.425781 C 317.421875 92.746094 318.011719 93.0625 318.5625 93.402344 C 320.785156 94.71875 322.917969 95.9375 324.464844 96.757812 C 322.667969 98.785156 319.710938 98.671875 316.925781 97.125 Z M 325.441406 116.179688 C 324.117188 115.089844 322.699219 113.691406 321.585938 111.945312 C 321.023438 111.078125 320.519531 110.125 320.089844 109.097656 C 319.636719 108.078125 319.195312 107.015625 318.882812 105.859375 C 321.246094 105.441406 323.535156 105.5 325.628906 105.941406 C 327.679688 106.398438 329.480469 107.257812 330.945312 108.347656 C 331.679688 108.898438 332.324219 109.5 332.859375 110.144531 C 333.125 110.46875 333.363281 110.800781 333.578125 111.140625 C 333.78125 111.476562 333.933594 111.835938 334.066406 112.195312 C 334.589844 113.625 334.617188 115.121094 333.996094 116.515625 C 333.285156 115.867188 332.414062 115.113281 331.441406 114.308594 C 330.957031 113.910156 330.445312 113.496094 329.914062 113.0625 C 329.386719 112.640625 328.785156 112.234375 328.203125 111.816406 C 327.023438 110.984375 325.796875 110.152344 324.589844 109.367188 C 323.367188 108.589844 322.21875 107.832031 321.011719 107.214844 C 322.117188 107.992188 323.164062 108.890625 324.320312 109.765625 C 325.480469 110.652344 326.65625 111.550781 327.785156 112.414062 C 328.96875 113.269531 329.984375 114.15625 330.980469 114.9375 C 331.964844 115.726562 332.867188 116.4375 333.632812 117.011719 C 331.335938 118.921875 328.171875 118.304688 325.441406 116.179688 Z M 331.238281 137.1875 C 330.625 136.492188 329.929688 135.730469 329.355469 134.863281 C 328.769531 134.003906 328.246094 133.054688 327.796875 132.03125 C 326.957031 129.964844 326.164062 127.671875 325.882812 125.097656 C 328.480469 125.019531 330.921875 125.449219 333.089844 126.261719 C 334.160156 126.671875 335.207031 127.160156 336.085938 127.75 C 336.964844 128.332031 337.761719 128.992188 338.445312 129.703125 C 339.824219 131.121094 340.785156 132.742188 341.183594 134.355469 C 341.496094 135.984375 341.257812 137.605469 340.347656 139.003906 C 339.039062 137.371094 337.207031 135.152344 334.90625 132.984375 C 332.664062 130.800781 330.296875 128.589844 327.925781 126.878906 C 330.015625 128.910156 332.167969 131.304688 334.347656 133.554688 C 334.894531 134.117188 335.429688 134.671875 335.945312 135.210938 C 336.460938 135.75 336.917969 136.285156 337.382812 136.789062 C 338.300781 137.800781 339.144531 138.71875 339.863281 139.46875 C 337.074219 141.125 333.789062 139.921875 331.238281 137.1875 Z M 333.753906 159.886719 C 332.574219 158.203125 331.5625 156.140625 330.976562 153.808594 C 330.824219 153.222656 330.703125 152.625 330.597656 152.007812 C 330.460938 151.398438 330.351562 150.769531 330.265625 150.128906 C 330.097656 148.847656 330.039062 147.503906 330.109375 146.113281 C 332.890625 146.464844 335.417969 147.332031 337.585938 148.566406 C 338.667969 149.183594 339.660156 149.890625 340.546875 150.660156 C 341.417969 151.433594 342.121094 152.277344 342.738281 153.152344 C 343.957031 154.90625 344.691406 156.804688 344.832031 158.597656 C 344.914062 160.394531 344.34375 162.085938 343.136719 163.417969 C 342.59375 162.425781 341.90625 161.257812 341.132812 160 C 340.757812 159.371094 340.3125 158.71875 339.835938 158.054688 C 339.363281 157.402344 338.875 156.726562 338.382812 156.039062 C 337.382812 154.679688 336.335938 153.3125 335.285156 152.007812 C 334.207031 150.703125 333.039062 149.46875 331.976562 148.351562 C 332.429688 148.984375 332.902344 149.636719 333.382812 150.304688 C 333.863281 150.972656 334.386719 151.65625 334.835938 152.355469 C 335.792969 153.761719 336.757812 155.1875 337.6875 156.558594 C 339.664062 159.328125 341.25 161.984375 342.53125 163.835938 C 339.273438 165.113281 335.984375 163.246094 333.753906 159.886719 Z M 332.425781 183.84375 C 331.570312 181.867188 330.832031 179.507812 330.597656 176.941406 C 330.429688 174.378906 330.378906 171.578125 331.035156 168.65625 C 333.925781 169.511719 336.453125 170.871094 338.53125 172.558594 C 339.566406 173.402344 340.515625 174.324219 341.296875 175.296875 C 342.050781 176.269531 342.679688 177.289062 343.179688 178.328125 C 343.675781 179.367188 344.039062 180.421875 344.253906 181.460938 C 344.363281 181.980469 344.441406 182.496094 344.472656 183 C 344.484375 183.503906 344.460938 183.996094 344.398438 184.476562 C 344.144531 186.394531 343.289062 188.09375 341.785156 189.285156 C 341.371094 188.136719 340.84375 186.773438 340.226562 185.296875 C 339.609375 183.820312 338.9375 182.234375 338.074219 180.617188 C 337.242188 179 336.359375 177.367188 335.472656 175.800781 C 335.246094 175.40625 335.03125 175.019531 334.796875 174.636719 C 334.554688 174.253906 334.308594 173.875 334.066406 173.5 C 333.585938 172.757812 333.101562 172.035156 332.628906 171.351562 C 333.003906 172.101562 333.386719 172.875 333.78125 173.664062 C 333.976562 174.058594 334.191406 174.460938 334.378906 174.867188 C 334.566406 175.269531 334.75 175.675781 334.9375 176.085938 C 335.714844 177.746094 336.5 179.421875 337.257812 181.039062 C 337.453125 181.449219 337.644531 181.859375 337.835938 182.257812 C 338.007812 182.664062 338.179688 183.058594 338.347656 183.449219 C 338.691406 184.238281 339.023438 185 339.339844 185.722656 C 339.976562 187.183594 340.574219 188.511719 341.085938 189.605469 C 337.425781 190.363281 334.25 187.785156 332.425781 183.84375 Z M 329.628906 213.949219 C 328.277344 212.566406 327.347656 210.644531 326.746094 208.390625 C 326.421875 207.257812 326.207031 206.046875 326.105469 204.777344 C 326.054688 204.144531 326.03125 203.5 326.042969 202.839844 C 326.058594 202.183594 326.097656 201.515625 326.117188 200.824219 C 326.234375 198.074219 327.015625 195.214844 328.0625 192.25 C 329.519531 192.964844 330.859375 193.792969 332.070312 194.714844 C 333.292969 195.636719 334.386719 196.652344 335.285156 197.722656 C 337.113281 199.863281 338.402344 202.273438 339.113281 204.664062 C 339.753906 207.035156 339.746094 209.367188 339.183594 211.363281 C 339.039062 211.859375 338.867188 212.335938 338.640625 212.78125 C 338.398438 213.222656 338.121094 213.636719 337.808594 214.019531 C 337.179688 214.789062 336.40625 215.425781 335.488281 215.898438 C 335.296875 214.617188 335.027344 213.089844 334.6875 211.429688 C 334.277344 209.746094 333.792969 207.925781 333.265625 206.082031 C 332.996094 205.160156 332.71875 204.234375 332.433594 203.3125 C 332.101562 202.378906 331.761719 201.449219 331.417969 200.539062 C 330.730469 198.71875 330.023438 196.972656 329.324219 195.378906 C 329.773438 197.0625 330.277344 198.878906 330.8125 200.75 C 331.070312 201.679688 331.375 202.636719 331.605469 203.574219 C 331.84375 204.519531 332.078125 205.457031 332.304688 206.378906 C 332.761719 208.230469 333.269531 210.058594 333.652344 211.710938 C 334.019531 213.355469 334.363281 214.859375 334.675781 216.105469 C 332.667969 216.152344 330.964844 215.328125 329.628906 213.949219 Z M 317.898438 239.136719 C 317.339844 238.277344 316.90625 237.292969 316.601562 236.21875 C 316.285156 235.144531 316.128906 233.992188 316.003906 232.734375 C 315.902344 231.488281 315.921875 230.183594 316.078125 228.847656 C 316.15625 228.183594 316.265625 227.503906 316.414062 226.824219 C 316.539062 226.136719 316.671875 225.429688 316.859375 224.726562 C 317.21875 223.320312 317.722656 221.902344 318.378906 220.492188 C 318.976562 219.058594 319.695312 217.613281 320.59375 216.203125 C 323.347656 218.25 325.519531 220.703125 327.078125 223.335938 C 328.609375 225.953125 329.417969 228.703125 329.675781 231.34375 C 329.734375 232 329.769531 232.660156 329.738281 233.285156 C 329.699219 233.910156 329.625 234.519531 329.511719 235.109375 C 329.285156 236.289062 328.917969 237.394531 328.410156 238.375 C 327.4375 240.363281 325.726562 241.753906 323.621094 242.378906 C 323.675781 240.996094 323.738281 239.363281 323.6875 237.535156 C 323.605469 235.695312 323.480469 233.703125 323.304688 231.671875 C 323.171875 229.664062 322.800781 227.527344 322.476562 225.503906 C 322.132812 223.46875 321.785156 221.519531 321.273438 219.675781 C 321.515625 221.566406 321.621094 223.53125 321.796875 225.585938 C 321.886719 226.621094 321.980469 227.664062 322.066406 228.695312 C 322.171875 229.746094 322.183594 230.75 322.246094 231.773438 C 322.363281 233.835938 322.472656 235.820312 322.574219 237.628906 C 322.613281 239.421875 322.667969 241.070312 322.738281 242.4375 C 320.621094 242.066406 319.015625 240.851562 317.898438 239.136719 Z M 299.796875 255.835938 C 299.984375 254.542969 300.242188 253.167969 300.683594 251.8125 C 300.898438 251.132812 301.152344 250.453125 301.4375 249.773438 C 301.730469 249.097656 302.058594 248.425781 302.378906 247.722656 C 303.039062 246.328125 303.847656 244.960938 304.816406 243.632812 C 305.316406 242.980469 305.785156 242.289062 306.316406 241.625 C 306.84375 240.957031 307.410156 240.300781 308.023438 239.660156 C 310.460938 242.359375 312.214844 245.363281 313.289062 248.425781 C 314.285156 251.433594 314.597656 254.5 314.304688 257.304688 C 313.949219 260.054688 312.941406 262.503906 311.492188 264.351562 C 309.976562 266.148438 307.953125 267.28125 305.644531 267.484375 C 305.992188 266.054688 306.367188 264.332031 306.726562 262.445312 C 306.816406 261.96875 306.914062 261.492188 306.988281 260.996094 C 307.0625 260.492188 307.128906 259.976562 307.199219 259.457031 C 307.335938 258.417969 307.464844 257.351562 307.582031 256.273438 C 307.703125 255.199219 307.808594 254.109375 307.902344 253.023438 C 307.957031 251.910156 308 250.800781 308.03125 249.707031 C 308.058594 248.609375 308.078125 247.535156 308.078125 246.484375 C 308.074219 245.964844 308.070312 245.449219 308.066406 244.941406 C 308.050781 244.425781 308.015625 243.910156 307.984375 243.410156 C 307.9375 243.90625 307.910156 244.421875 307.847656 244.925781 C 307.789062 245.433594 307.730469 245.945312 307.667969 246.460938 C 307.546875 247.511719 307.429688 248.578125 307.304688 249.65625 C 307.175781 250.734375 307.089844 251.859375 306.929688 252.933594 C 306.773438 254.019531 306.617188 255.101562 306.464844 256.160156 C 305.925781 260.492188 305.128906 264.4375 304.722656 267.347656 C 300.519531 265.671875 299.042969 260.949219 299.796875 255.835938 Z M 276.832031 283.691406 C 276.65625 282.5625 276.667969 281.367188 276.847656 280.136719 C 277.027344 278.910156 277.320312 277.574219 277.792969 276.28125 C 278.257812 274.976562 278.878906 273.667969 279.648438 272.394531 C 280.378906 271.074219 281.238281 269.761719 282.261719 268.515625 C 282.761719 267.886719 283.328125 267.296875 283.886719 266.675781 C 284.441406 266.050781 285.03125 265.441406 285.660156 264.851562 C 286.914062 263.660156 288.371094 262.597656 289.847656 261.492188 C 290.820312 263.15625 291.613281 264.875 292.195312 266.589844 C 292.765625 268.28125 293.140625 269.984375 293.339844 271.667969 C 293.539062 273.347656 293.558594 275.003906 293.417969 276.605469 C 293.285156 278.210938 292.902344 279.667969 292.429688 281.070312 C 291.941406 282.464844 291.316406 283.753906 290.574219 284.894531 C 289.816406 286.019531 288.902344 286.949219 287.929688 287.722656 C 286.949219 288.488281 285.886719 289.066406 284.765625 289.417969 C 283.636719 289.75 282.417969 289.816406 281.191406 289.644531 C 281.546875 288.957031 281.921875 288.195312 282.3125 287.378906 C 282.707031 286.5625 283.070312 285.628906 283.460938 284.679688 C 284.222656 282.761719 285.046875 280.722656 285.757812 278.535156 C 286.453125 276.328125 287.109375 274.066406 287.6875 271.863281 C 288.226562 269.613281 288.648438 267.378906 289 265.332031 C 288.675781 266.332031 288.339844 267.359375 288 268.410156 C 287.832031 268.941406 287.660156 269.480469 287.488281 270.023438 L 287.230469 270.84375 L 286.941406 271.644531 C 286.171875 273.835938 285.390625 276.054688 284.636719 278.1875 C 283.804688 280.332031 283.003906 282.398438 282.273438 284.273438 C 282.089844 284.75 281.914062 285.21875 281.738281 285.671875 C 281.554688 286.117188 281.375 286.546875 281.203125 286.960938 C 280.859375 287.800781 280.539062 288.578125 280.25 289.28125 C 278.257812 287.925781 277.179688 285.949219 276.832031 283.691406 Z M 247.265625 299.707031 C 247.359375 298.503906 247.679688 297.316406 248.144531 296.0625 C 248.609375 294.808594 249.25 293.558594 250.042969 292.347656 C 250.441406 291.742188 250.875 291.144531 251.351562 290.566406 C 251.589844 290.273438 251.835938 289.984375 252.09375 289.703125 C 252.339844 289.402344 252.59375 289.101562 252.859375 288.808594 C 253.921875 287.636719 255.125 286.527344 256.46875 285.515625 C 257.152344 285.03125 257.816406 284.472656 258.539062 283.984375 C 259.253906 283.484375 260.007812 283.011719 260.796875 282.570312 C 262.394531 281.726562 264.039062 280.832031 265.851562 280.121094 C 266.460938 282.058594 266.859375 283.984375 267.0625 285.886719 C 267.265625 287.785156 267.277344 289.667969 267.066406 291.410156 C 266.867188 293.167969 266.484375 294.863281 265.949219 296.457031 C 265.414062 298.050781 264.738281 299.5625 263.878906 300.835938 C 260.554688 306.105469 255.113281 308.835938 250.25 306.882812 C 250.78125 306.257812 251.375 305.617188 251.957031 304.832031 C 252.546875 304.058594 253.160156 303.226562 253.792969 302.351562 C 255.050781 300.585938 256.402344 298.722656 257.632812 296.605469 C 258.257812 295.566406 258.875 294.511719 259.480469 293.453125 C 260.085938 292.402344 260.675781 291.347656 261.207031 290.234375 C 262.28125 288.039062 263.273438 285.910156 264.109375 283.894531 C 262.960938 285.785156 261.738281 287.800781 260.503906 289.839844 L 260.03125 290.625 L 259.539062 291.378906 C 259.207031 291.886719 258.878906 292.394531 258.550781 292.898438 C 257.878906 293.929688 257.21875 294.957031 256.566406 295.957031 C 256.238281 296.460938 255.917969 296.984375 255.585938 297.464844 C 255.25 297.945312 254.917969 298.417969 254.589844 298.886719 C 253.929688 299.835938 253.289062 300.753906 252.683594 301.625 C 252.070312 302.515625 251.488281 303.363281 250.941406 304.152344 C 250.382812 304.921875 249.863281 305.636719 249.394531 306.28125 C 247.679688 304.394531 247.066406 302.097656 247.265625 299.707031 Z M 212.195312 308.632812 C 212.613281 307.441406 213.246094 306.277344 214.058594 305.167969 C 214.867188 304.066406 215.835938 302.914062 216.960938 301.894531 C 218.082031 300.859375 219.355469 299.933594 220.746094 299.058594 C 222.121094 298.132812 223.625 297.3125 225.246094 296.628906 C 225.648438 296.453125 226.058594 296.289062 226.480469 296.136719 C 226.894531 295.964844 227.3125 295.789062 227.742188 295.628906 C 228.59375 295.304688 229.476562 295.015625 230.386719 294.769531 C 231.292969 294.507812 232.242188 294.332031 233.195312 294.121094 C 234.144531 293.902344 235.125 293.722656 236.132812 293.585938 C 236.261719 295.71875 236.175781 297.789062 235.898438 299.78125 C 235.761719 300.773438 235.574219 301.753906 235.34375 302.699219 C 235.101562 303.625 234.816406 304.523438 234.488281 305.398438 C 233.832031 307.140625 233.007812 308.773438 232.050781 310.265625 C 231.574219 311.007812 231.066406 311.734375 230.519531 312.382812 C 229.972656 313.023438 229.398438 313.617188 228.800781 314.171875 C 227.601562 315.285156 226.320312 316.21875 225 316.957031 C 224.339844 317.339844 223.660156 317.621094 222.980469 317.847656 C 222.300781 318.074219 221.613281 318.25 220.933594 318.371094 C 219.574219 318.609375 218.230469 318.621094 216.949219 318.378906 C 215.664062 318.113281 214.4375 317.539062 213.332031 316.726562 C 214.035156 316.242188 214.800781 315.699219 215.613281 315.105469 C 216.421875 314.515625 217.261719 313.792969 218.136719 313.074219 C 219.007812 312.34375 219.910156 311.574219 220.820312 310.777344 C 221.730469 309.984375 222.652344 309.171875 223.554688 308.246094 C 225.363281 306.433594 227.171875 304.609375 228.84375 302.699219 C 230.5 300.738281 232.046875 298.804688 233.410156 296.984375 C 231.785156 298.566406 230.039062 300.308594 228.234375 302.121094 C 226.363281 303.859375 224.46875 305.621094 222.644531 307.316406 C 218.890625 310.609375 215.230469 313.777344 212.609375 315.882812 C 211.371094 313.519531 211.359375 311.019531 212.195312 308.632812 Z M 324.773438 81.195312 C 325.128906 80.515625 325.375 79.734375 325.519531 78.867188 C 325.640625 78.007812 325.628906 77.078125 325.515625 76.085938 C 325.273438 74.101562 324.578125 71.871094 323.414062 69.640625 C 322.160156 67.472656 320.445312 65.292969 318.316406 63.351562 C 315.621094 67.71875 314.773438 72.515625 315.304688 76.289062 C 315.511719 78.226562 316.085938 79.914062 317.007812 81.207031 C 317.46875 81.851562 318.019531 82.398438 318.65625 82.824219 C 319.292969 83.253906 319.960938 83.601562 320.746094 83.785156 C 320.699219 83.273438 320.652344 82.710938 320.597656 82.105469 C 320.527344 81.507812 320.457031 80.871094 320.378906 80.195312 C 320.238281 78.828125 320.082031 77.328125 319.921875 75.769531 C 319.667969 72.582031 319.164062 69.273438 318.851562 66.234375 C 319.230469 67.738281 319.597656 69.328125 319.9375 70.925781 L 320.183594 72.128906 C 320.257812 72.527344 320.3125 72.945312 320.375 73.347656 C 320.488281 74.160156 320.605469 74.96875 320.71875 75.757812 C 321.128906 78.917969 321.429688 81.742188 321.40625 83.800781 C 322.929688 83.464844 324.0625 82.542969 324.773438 81.195312 Z M 336.621094 101.183594 C 337.609375 99.816406 338.152344 97.90625 338.226562 95.644531 C 338.265625 94.515625 338.183594 93.300781 337.980469 92.027344 C 337.929688 91.707031 337.875 91.386719 337.804688 91.0625 C 337.726562 90.742188 337.636719 90.421875 337.542969 90.097656 C 337.351562 89.453125 337.125 88.800781 336.871094 88.136719 C 336.359375 86.816406 335.722656 85.472656 334.957031 84.144531 C 334.765625 83.8125 334.566406 83.480469 334.359375 83.152344 C 334.140625 82.828125 333.90625 82.511719 333.667969 82.191406 C 333.1875 81.558594 332.679688 80.9375 332.140625 80.324219 C 330.335938 82.535156 329.078125 84.921875 328.210938 87.308594 C 327.3125 89.714844 326.859375 92.089844 326.851562 94.238281 C 326.835938 95.320312 326.976562 96.316406 327.140625 97.289062 C 327.3125 98.257812 327.597656 99.148438 327.996094 99.941406 C 328.789062 101.535156 330.042969 102.738281 331.75 103.402344 C 331.785156 101.152344 331.933594 97.933594 332.128906 94.359375 C 332.210938 90.777344 332.296875 86.945312 332.371094 83.570312 C 332.601562 85.292969 332.707031 87.164062 332.824219 89 C 332.878906 89.925781 332.921875 90.847656 332.960938 91.761719 C 332.988281 92.675781 333.035156 93.5625 333 94.46875 C 332.914062 98.066406 332.742188 101.269531 332.449219 103.511719 C 334.191406 103.394531 335.601562 102.570312 336.621094 101.183594 Z M 348.417969 117.992188 C 348.640625 116.753906 348.804688 115.382812 348.738281 113.964844 C 348.667969 112.542969 348.472656 111.042969 348.140625 109.492188 C 347.972656 108.71875 347.769531 107.933594 347.535156 107.140625 C 347.417969 106.746094 347.292969 106.347656 347.15625 105.949219 C 347.011719 105.554688 346.84375 105.164062 346.671875 104.773438 C 345.984375 103.203125 345.15625 101.628906 344.183594 100.09375 C 339.519531 104.433594 337.03125 109.820312 336.167969 114.554688 C 335.496094 119.246094 336.449219 123.378906 339.996094 125.390625 C 340.210938 124.164062 340.5 122.675781 340.835938 121.003906 C 341.007812 120.164062 341.191406 119.285156 341.378906 118.375 C 341.472656 117.914062 341.574219 117.449219 341.671875 116.980469 C 341.75 116.511719 341.832031 116.035156 341.910156 115.558594 C 342.546875 111.734375 343.398438 107.460938 343.890625 103.746094 C 343.882812 104.710938 343.859375 105.703125 343.824219 106.707031 C 343.785156 107.707031 343.667969 108.753906 343.578125 109.777344 C 343.378906 111.835938 343.136719 113.882812 342.871094 115.820312 C 342.761719 116.785156 342.542969 117.753906 342.371094 118.671875 C 342.1875 119.589844 342.003906 120.472656 341.820312 121.304688 C 341.457031 122.972656 341.101562 124.441406 340.773438 125.636719 C 344.675781 125.980469 347.484375 122.964844 348.417969 117.992188 Z M 355.34375 142.957031 C 357.257812 137.738281 357.015625 130.074219 353.761719 122.707031 C 350.882812 124.675781 348.511719 127.054688 346.671875 129.53125 C 345.753906 130.773438 344.96875 132.039062 344.328125 133.304688 C 343.65625 134.574219 343.070312 135.855469 342.660156 137.101562 C 342.246094 138.351562 341.976562 139.574219 341.863281 140.746094 C 341.808594 141.332031 341.792969 141.90625 341.816406 142.46875 C 341.816406 143.03125 341.84375 143.582031 341.921875 144.113281 C 342.21875 146.246094 343.191406 148.101562 344.914062 149.507812 C 345.367188 148.214844 345.949219 146.65625 346.613281 144.902344 C 346.949219 144.019531 347.304688 143.097656 347.667969 142.140625 C 348.054688 141.179688 348.34375 140.195312 348.703125 139.179688 C 349.414062 137.121094 350.148438 134.984375 350.871094 132.882812 C 351.0625 132.34375 351.234375 131.8125 351.386719 131.289062 C 351.550781 130.761719 351.710938 130.234375 351.871094 129.714844 C 352.195312 128.667969 352.515625 127.636719 352.824219 126.640625 C 352.644531 127.695312 352.449219 128.777344 352.238281 129.863281 C 352.023438 130.953125 351.820312 132.050781 351.507812 133.160156 C 350.929688 135.371094 350.3125 137.5625 349.683594 139.632812 C 349.527344 140.144531 349.371094 140.652344 349.214844 141.15625 C 349.050781 141.660156 348.855469 142.15625 348.679688 142.640625 C 348.320312 143.609375 347.964844 144.535156 347.617188 145.410156 C 346.929688 147.15625 346.28125 148.6875 345.71875 149.925781 C 349.886719 150.988281 353.449219 148.21875 355.34375 142.957031 Z M 352.972656 175.78125 C 354.96875 174.769531 356.777344 172.835938 358.261719 170.175781 C 359.8125 167.515625 360.695312 164.128906 361.136719 160.3125 C 361.230469 159.359375 361.351562 158.375 361.320312 157.378906 C 361.304688 156.378906 361.253906 155.359375 361.160156 154.328125 C 361.066406 153.292969 360.933594 152.246094 360.753906 151.1875 C 360.667969 150.660156 360.570312 150.132812 360.464844 149.597656 C 360.40625 149.335938 360.347656 149.070312 360.289062 148.800781 C 360.214844 148.539062 360.140625 148.273438 360.0625 148.007812 C 358.394531 148.820312 356.789062 149.773438 355.316406 150.816406 C 353.84375 151.855469 352.503906 152.984375 351.296875 154.164062 C 350.09375 155.34375 349.027344 156.570312 348.117188 157.820312 C 347.886719 158.132812 347.664062 158.445312 347.457031 158.761719 C 347.230469 159.078125 347.011719 159.394531 346.808594 159.710938 C 346.394531 160.34375 346.019531 160.980469 345.683594 161.617188 C 345.015625 162.886719 344.507812 164.152344 344.179688 165.394531 C 344.015625 166.011719 343.894531 166.628906 343.820312 167.230469 C 343.734375 167.839844 343.65625 168.433594 343.648438 169.019531 C 343.59375 171.363281 344.316406 173.535156 345.910156 175.359375 C 346.632812 174.050781 347.523438 172.476562 348.550781 170.710938 C 349.066406 169.820312 349.609375 168.886719 350.167969 167.925781 C 350.738281 166.957031 351.234375 165.949219 351.800781 164.917969 C 352.929688 162.820312 354.097656 160.648438 355.25 158.507812 C 356.335938 156.308594 357.410156 154.140625 358.417969 152.109375 C 357.644531 154.332031 356.839844 156.640625 355.882812 158.921875 C 354.871094 161.207031 353.816406 163.460938 352.777344 165.578125 C 352.261719 166.640625 351.746094 167.664062 351.167969 168.644531 C 350.609375 169.621094 350.066406 170.554688 349.542969 171.433594 C 348.484375 173.1875 347.5625 174.722656 346.671875 175.945312 C 348.773438 176.882812 350.929688 176.789062 352.972656 175.78125 Z M 349.679688 204.144531 C 350.84375 203.796875 352.019531 203.199219 353.167969 202.363281 C 353.742188 201.945312 354.3125 201.46875 354.871094 200.9375 C 355.425781 200.402344 355.929688 199.804688 356.4375 199.160156 C 358.4375 196.570312 360.300781 193.136719 361.320312 189.089844 C 362.496094 185.0625 362.800781 180.4375 362.390625 175.667969 C 358.488281 176.824219 354.921875 178.625 351.957031 180.714844 C 351.210938 181.238281 350.503906 181.785156 349.832031 182.34375 C 349.160156 182.902344 348.535156 183.476562 347.894531 184.054688 C 346.640625 185.222656 345.542969 186.433594 344.621094 187.667969 C 344.160156 188.285156 343.738281 188.910156 343.367188 189.535156 C 343.179688 189.851562 343.007812 190.164062 342.84375 190.480469 C 342.664062 190.792969 342.496094 191.105469 342.339844 191.417969 C 341.714844 192.671875 341.285156 193.929688 341.066406 195.175781 C 340.683594 197.679688 340.917969 200.097656 342.234375 202.339844 C 342.765625 201.714844 343.355469 201.027344 343.984375 200.289062 C 344.617188 199.546875 345.335938 198.757812 346.007812 197.902344 C 347.414062 196.175781 348.960938 194.28125 350.558594 192.316406 C 353.660156 188.308594 357.078125 183.835938 359.902344 179.773438 C 358.703125 182.027344 357.457031 184.363281 355.945312 186.632812 C 355.214844 187.769531 354.472656 188.894531 353.730469 189.996094 C 352.996094 191.097656 352.261719 192.175781 351.453125 193.203125 C 349.878906 195.265625 348.351562 197.175781 346.949219 198.859375 C 345.472656 200.527344 344.097656 201.964844 342.957031 203.105469 C 345.039062 204.519531 347.347656 204.839844 349.679688 204.144531 Z M 340.777344 233.085938 C 342.082031 232.953125 343.449219 232.554688 344.847656 231.902344 C 346.226562 231.246094 347.566406 230.304688 348.917969 229.136719 C 349.589844 228.550781 350.253906 227.90625 350.914062 227.203125 C 351.558594 226.5 352.242188 225.757812 352.816406 224.925781 C 354 223.277344 355.117188 221.417969 356.128906 219.382812 C 356.65625 218.371094 357.066406 217.289062 357.464844 216.175781 C 357.859375 215.0625 358.226562 213.910156 358.550781 212.722656 C 359.25 210.367188 359.585938 207.832031 359.789062 205.234375 C 357.605469 205.488281 355.503906 205.933594 353.515625 206.523438 C 351.519531 207.109375 349.667969 207.851562 347.839844 208.667969 C 346.039062 209.492188 344.367188 210.421875 342.855469 211.429688 C 342.101562 211.933594 341.386719 212.453125 340.714844 212.996094 C 340.035156 213.535156 339.347656 214.070312 338.734375 214.632812 C 336.242188 216.871094 334.542969 219.355469 333.492188 221.871094 C 332.996094 223.136719 332.730469 224.4375 332.710938 225.753906 C 332.6875 227.066406 332.828125 228.363281 333.296875 229.675781 C 333.988281 229.128906 334.75 228.519531 335.570312 227.871094 C 336.390625 227.210938 337.226562 226.484375 338.140625 225.726562 C 339.058594 224.964844 340.019531 224.164062 341.019531 223.335938 C 341.523438 222.917969 342.035156 222.492188 342.554688 222.0625 C 343.050781 221.617188 343.554688 221.167969 344.0625 220.714844 C 345.09375 219.792969 346.144531 218.855469 347.199219 217.914062 C 348.261719 216.960938 349.371094 216.003906 350.371094 215.011719 C 352.460938 213.007812 354.519531 211.03125 356.445312 209.183594 C 354.734375 211.351562 352.832031 213.566406 350.925781 215.730469 C 348.960938 217.875 346.84375 219.921875 344.867188 221.835938 C 340.738281 225.609375 336.84375 228.726562 333.878906 230.636719 C 335.785156 232.542969 338.15625 233.351562 340.777344 233.085938 Z M 325.519531 261.460938 C 328.304688 261.726562 331.644531 260.949219 334.925781 259 C 335.75 258.519531 336.589844 257.976562 337.429688 257.371094 C 338.257812 256.761719 339.132812 256.117188 339.914062 255.355469 C 341.507812 253.855469 343.078125 252.121094 344.574219 250.175781 C 346.023438 248.207031 347.308594 245.984375 348.507812 243.621094 C 349.121094 242.445312 349.605469 241.179688 350.074219 239.894531 C 350.539062 238.609375 350.964844 237.285156 351.339844 235.933594 C 346.625 235.613281 342.113281 236.148438 338.078125 237.207031 C 336.007812 237.710938 334.050781 238.351562 332.25 239.101562 C 330.433594 239.847656 328.835938 240.734375 327.265625 241.640625 C 324.183594 243.480469 321.871094 245.734375 320.25 248.15625 C 319.464844 249.382812 318.917969 250.699219 318.617188 252.074219 C 318.269531 253.417969 318.179688 254.835938 318.386719 256.3125 C 320.035156 255.429688 322.128906 254.429688 324.316406 253.183594 C 325.441406 252.566406 326.621094 251.921875 327.839844 251.257812 C 328.453125 250.921875 329.082031 250.578125 329.71875 250.234375 C 330.335938 249.867188 330.960938 249.5 331.589844 249.125 C 336.707031 246.167969 342.160156 242.6875 346.972656 239.4375 C 346.421875 239.933594 345.886719 240.441406 345.292969 240.929688 C 344.703125 241.410156 344.105469 241.894531 343.5 242.382812 C 342.292969 243.355469 341.0625 244.316406 339.828125 245.261719 C 338.617188 246.21875 337.285156 247.097656 336.007812 247.96875 C 334.71875 248.835938 333.445312 249.671875 332.195312 250.472656 C 331.886719 250.671875 331.574219 250.867188 331.265625 251.066406 C 330.945312 251.25 330.625 251.4375 330.3125 251.621094 C 329.675781 251.980469 329.050781 252.335938 328.441406 252.683594 C 327.210938 253.371094 326.027344 254.015625 324.90625 254.609375 C 323.796875 255.21875 322.683594 255.730469 321.65625 256.195312 C 320.628906 256.660156 319.671875 257.070312 318.8125 257.429688 C 320.410156 259.839844 322.722656 261.195312 325.519531 261.460938 Z M 303.40625 287.855469 C 306.238281 288.726562 309.832031 288.574219 313.78125 287.332031 C 315.710938 286.667969 317.726562 285.738281 319.777344 284.558594 C 320.289062 284.261719 320.808594 283.953125 321.320312 283.621094 C 321.816406 283.277344 322.3125 282.917969 322.8125 282.542969 C 323.808594 281.792969 324.800781 280.980469 325.785156 280.109375 C 327.796875 278.402344 329.59375 276.3125 331.34375 274.066406 C 333.132812 271.847656 334.609375 269.273438 335.976562 266.589844 C 333.550781 265.933594 331.128906 265.511719 328.765625 265.289062 C 326.390625 265.0625 324.113281 265.058594 321.824219 265.140625 C 317.28125 265.328125 313.222656 266.238281 309.589844 267.480469 C 302.511719 270.140625 297.566406 274.488281 297.136719 280.898438 C 299.035156 280.328125 301.371094 279.667969 304.015625 278.933594 C 306.617188 278.15625 309.460938 277.226562 312.507812 276.269531 C 315.476562 275.242188 318.585938 274.121094 321.707031 272.984375 C 324.730469 271.765625 327.816406 270.5625 330.691406 269.375 C 329.332031 270.183594 327.863281 270.945312 326.40625 271.722656 C 324.9375 272.488281 323.472656 273.257812 321.960938 273.976562 C 320.421875 274.667969 318.882812 275.339844 317.359375 275.984375 C 315.828125 276.617188 314.359375 277.265625 312.820312 277.785156 C 311.308594 278.320312 309.832031 278.824219 308.414062 279.292969 C 307.707031 279.519531 307.007812 279.746094 306.328125 279.964844 C 305.648438 280.183594 304.949219 280.351562 304.289062 280.53125 C 301.625 281.230469 299.269531 281.792969 297.328125 282.175781 C 298.417969 285.011719 300.550781 286.964844 303.40625 287.855469 Z M 274.074219 310.304688 C 275.449219 311.101562 277.078125 311.675781 278.925781 312.011719 C 280.785156 312.375 282.800781 312.402344 284.976562 312.179688 C 286.070312 312.070312 287.199219 311.898438 288.359375 311.664062 C 288.941406 311.542969 289.53125 311.410156 290.128906 311.257812 C 290.71875 311.097656 291.300781 310.902344 291.898438 310.703125 C 293.085938 310.296875 294.300781 309.824219 295.527344 309.289062 C 296.136719 309.023438 296.757812 308.738281 297.375 308.4375 C 297.683594 308.285156 297.992188 308.128906 298.304688 307.976562 C 298.605469 307.800781 298.910156 307.628906 299.210938 307.453125 C 300.421875 306.742188 301.636719 305.972656 302.84375 305.136719 C 304.046875 304.292969 305.28125 303.429688 306.40625 302.402344 C 307.554688 301.398438 308.683594 300.332031 309.789062 299.210938 C 310.339844 298.652344 310.886719 298.078125 311.421875 297.492188 C 311.9375 296.882812 312.445312 296.253906 312.941406 295.617188 C 310.566406 294.398438 308.195312 293.484375 305.75 292.6875 C 303.316406 291.90625 300.898438 291.339844 298.546875 290.964844 C 297.371094 290.777344 296.210938 290.636719 295.074219 290.542969 C 293.925781 290.4375 292.773438 290.347656 291.667969 290.324219 C 289.4375 290.261719 287.316406 290.378906 285.34375 290.675781 C 283.316406 290.910156 281.429688 291.316406 279.71875 291.910156 C 278.855469 292.195312 278.0625 292.570312 277.269531 292.914062 C 276.476562 293.269531 275.734375 293.667969 275.039062 294.117188 C 273.648438 295.003906 272.480469 296.121094 271.496094 297.363281 C 270.503906 298.582031 269.738281 300.003906 269.238281 301.628906 C 270.304688 301.578125 271.484375 301.519531 272.753906 301.457031 C 273.390625 301.425781 274.0625 301.410156 274.742188 301.367188 C 275.417969 301.3125 276.117188 301.261719 276.832031 301.207031 C 279.695312 300.976562 282.960938 300.820312 286.265625 300.402344 C 287.953125 300.210938 289.667969 300.019531 291.394531 299.828125 C 293.132812 299.617188 294.839844 299.328125 296.585938 299.074219 C 298.320312 298.804688 300.082031 298.5625 301.785156 298.269531 C 303.492188 297.953125 305.160156 297.644531 306.777344 297.34375 C 305.160156 297.871094 303.5 298.386719 301.824219 298.886719 C 300.109375 299.339844 298.359375 299.761719 296.625 300.167969 C 293.183594 301.027344 289.601562 301.570312 286.257812 302.066406 C 285.414062 302.183594 284.605469 302.320312 283.773438 302.394531 C 282.945312 302.472656 282.132812 302.546875 281.328125 302.617188 C 279.730469 302.753906 278.199219 302.863281 276.757812 302.949219 C 275.332031 303.058594 273.921875 303.035156 272.644531 303.039062 C 271.363281 303.035156 270.1875 303.011719 269.128906 302.976562 C 269.609375 306.21875 271.324219 308.710938 274.074219 310.304688 Z M 237.648438 326.523438 C 240.0625 328.84375 243.820312 330.609375 248.4375 331.195312 C 250.746094 331.503906 253.320312 331.671875 255.980469 331.386719 C 257.316406 331.265625 258.695312 331.078125 260.109375 330.835938 C 260.8125 330.710938 261.527344 330.574219 262.246094 330.417969 C 262.953125 330.234375 263.667969 330.035156 264.386719 329.820312 C 267.253906 328.9375 270.253906 327.902344 273.117188 326.339844 C 274.5625 325.585938 276.007812 324.769531 277.4375 323.886719 C 278.859375 322.988281 280.222656 321.945312 281.582031 320.882812 C 279.421875 319.078125 277.152344 317.511719 274.847656 316.171875 C 272.550781 314.839844 270.15625 313.617188 267.816406 312.667969 C 266.644531 312.183594 265.476562 311.753906 264.324219 311.378906 C 263.167969 311.003906 262.027344 310.6875 260.875 310.359375 C 258.582031 309.742188 256.363281 309.335938 254.25 309.144531 C 253.199219 309.070312 252.140625 308.964844 251.125 308.941406 C 250.101562 308.914062 249.113281 308.945312 248.15625 309.03125 C 247.199219 309.117188 246.277344 309.261719 245.386719 309.464844 C 244.492188 309.636719 243.621094 309.851562 242.796875 310.132812 C 241.140625 310.695312 239.648438 311.519531 238.332031 312.574219 C 236.996094 313.566406 235.847656 314.828125 234.921875 316.363281 C 237.125 316.769531 239.84375 317.402344 242.84375 317.863281 C 244.371094 318.121094 245.96875 318.394531 247.625 318.675781 C 248.464844 318.828125 249.308594 318.945312 250.164062 319.050781 C 251.027344 319.164062 251.898438 319.277344 252.78125 319.390625 C 254.546875 319.613281 256.382812 319.871094 258.226562 320.070312 C 260.074219 320.234375 261.933594 320.394531 263.777344 320.558594 C 264.71875 320.640625 265.65625 320.71875 266.585938 320.800781 C 267.523438 320.882812 268.429688 320.902344 269.347656 320.957031 C 271.199219 321.050781 273.011719 321.140625 274.765625 321.226562 C 271.136719 321.511719 267.378906 321.785156 263.539062 321.695312 C 261.632812 321.671875 259.75 321.664062 257.875 321.558594 C 255.988281 321.429688 254.132812 321.277344 252.339844 321.109375 C 251.449219 321.019531 250.566406 320.929688 249.691406 320.84375 C 248.820312 320.734375 247.953125 320.589844 247.113281 320.460938 C 245.429688 320.199219 243.820312 319.921875 242.3125 319.648438 C 240.8125 319.394531 239.371094 319.039062 238.050781 318.707031 C 236.734375 318.375 235.53125 318.050781 234.453125 317.742188 C 234.105469 321.1875 235.226562 324.1875 237.648438 326.523438 Z M 194.992188 333.648438 C 195.910156 335.160156 197.207031 336.589844 198.851562 337.902344 C 199.671875 338.558594 200.578125 339.183594 201.570312 339.773438 C 202.558594 340.382812 203.625 340.851562 204.769531 341.332031 C 205.910156 341.800781 207.128906 342.226562 208.414062 342.613281 C 209.058594 342.800781 209.71875 342.980469 210.394531 343.148438 C 210.730469 343.230469 211.074219 343.308594 211.417969 343.390625 C 211.761719 343.449219 212.113281 343.507812 212.460938 343.570312 C 213.867188 343.792969 215.332031 343.964844 216.851562 344.082031 C 217.609375 344.140625 218.378906 344.183594 219.160156 344.214844 C 219.941406 344.246094 220.734375 344.265625 221.53125 344.214844 C 227.914062 343.988281 234.929688 342.628906 241.644531 339.574219 C 239.898438 337.167969 237.980469 334.988281 235.96875 333.019531 C 233.941406 330.992188 231.820312 329.175781 229.671875 327.585938 C 228.597656 326.789062 227.515625 326.046875 226.429688 325.363281 C 225.351562 324.695312 224.25 323.984375 223.160156 323.382812 C 220.980469 322.152344 218.820312 321.171875 216.707031 320.414062 C 214.582031 319.574219 212.503906 318.980469 210.503906 318.664062 C 210.003906 318.582031 209.507812 318.519531 209.015625 318.476562 C 208.527344 318.421875 208.035156 318.355469 207.554688 318.324219 C 206.585938 318.253906 205.640625 318.253906 204.722656 318.324219 C 201.042969 318.699219 197.707031 319.886719 194.964844 322.5625 C 196.042969 323.078125 197.234375 323.648438 198.515625 324.265625 C 199.164062 324.578125 199.832031 324.90625 200.523438 325.246094 C 200.871094 325.414062 201.222656 325.585938 201.582031 325.757812 C 201.9375 325.917969 202.304688 326.082031 202.671875 326.242188 C 204.164062 326.90625 205.730469 327.601562 207.34375 328.320312 C 208.167969 328.6875 209.003906 329.058594 209.847656 329.433594 C 210.703125 329.777344 211.566406 330.121094 212.4375 330.46875 C 214.214844 331.171875 216.023438 331.886719 217.84375 332.601562 C 218.765625 332.980469 219.6875 333.285156 220.617188 333.613281 C 221.550781 333.9375 222.488281 334.261719 223.417969 334.585938 C 224.363281 334.910156 225.300781 335.238281 226.238281 335.558594 C 227.175781 335.882812 228.117188 336.214844 229.042969 336.484375 C 230.917969 337.054688 232.761719 337.613281 234.539062 338.152344 C 232.632812 337.839844 230.691406 337.488281 228.742188 337.113281 C 226.789062 336.699219 224.8125 336.179688 222.859375 335.679688 C 218.964844 334.738281 215.101562 333.363281 211.519531 332.105469 C 211.074219 331.945312 210.628906 331.785156 210.1875 331.625 C 209.746094 331.441406 209.308594 331.261719 208.875 331.082031 C 208.015625 330.722656 207.167969 330.363281 206.335938 330.007812 C 204.683594 329.296875 203.113281 328.597656 201.644531 327.921875 C 198.699219 326.425781 196.152344 325.03125 194.117188 323.832031 C 192.824219 327.269531 193.148438 330.625 194.992188 333.648438 Z M 312.257812 63.867188 C 312.058594 62.953125 311.695312 62.019531 311.179688 61.089844 C 310.660156 60.160156 310.023438 59.210938 309.171875 58.371094 C 307.5 56.671875 305.347656 55.070312 302.816406 53.914062 C 300.226562 52.816406 297.320312 52.097656 294.308594 51.972656 C 294.75 55.035156 295.617188 57.796875 296.785156 60.160156 C 297.894531 62.582031 299.238281 64.675781 300.800781 66.246094 C 301.59375 67.023438 302.347656 67.753906 303.160156 68.320312 C 303.96875 68.894531 304.808594 69.324219 305.664062 69.609375 C 307.367188 70.175781 309.125 70.136719 310.757812 69.332031 C 309.917969 68.464844 308.933594 67.398438 307.859375 66.195312 C 307.324219 65.59375 306.765625 64.960938 306.1875 64.304688 C 305.894531 63.976562 305.613281 63.632812 305.304688 63.304688 C 304.996094 62.980469 304.683594 62.648438 304.367188 62.316406 C 303.101562 60.980469 301.804688 59.582031 300.542969 58.183594 C 299.929688 57.464844 299.238281 56.832031 298.609375 56.164062 C 297.96875 55.5 297.347656 54.851562 296.742188 54.222656 C 297.421875 54.777344 298.117188 55.347656 298.832031 55.929688 C 299.53125 56.527344 300.28125 57.101562 300.949219 57.769531 C 302.324219 59.066406 303.695312 60.402344 305.011719 61.707031 C 305.339844 62.03125 305.664062 62.355469 305.984375 62.675781 C 306.300781 63 306.589844 63.339844 306.882812 63.667969 C 307.464844 64.328125 308.027344 64.964844 308.558594 65.574219 C 309.625 66.800781 310.566406 67.917969 311.324219 68.855469 C 312.386719 67.414062 312.660156 65.691406 312.257812 63.867188 " fill-opacity="1" fill-rule="evenodd"/></g></svg>